<?xml version="1.0" encoding="UTF-8" standalone="no"?>
<!-- Created with Inkscape (http://www.inkscape.org/) -->

<svg
   xmlns:dc="http://purl.org/dc/elements/1.1/"
   xmlns:cc="http://creativecommons.org/ns#"
   xmlns:rdf="http://www.w3.org/1999/02/22-rdf-syntax-ns#"
   xmlns:svg="http://www.w3.org/2000/svg"
   xmlns="http://www.w3.org/2000/svg"
   xmlns:sodipodi="http://sodipodi.sourceforge.net/DTD/sodipodi-0.dtd"
   xmlns:inkscape="http://www.inkscape.org/namespaces/inkscape"
   width="1920"
   height="1080"
   viewBox="0 0 1800 1012.5"
   id="svg2"
   version="1.1"
   inkscape:version="0.92pre2 r"
   sodipodi:docname="wall_calendar_v2.svg">
  <defs
     id="defs4" />
  <sodipodi:namedview
     id="base"
     pagecolor="#ffffff"
     bordercolor="#666666"
     borderopacity="1.0"
     inkscape:pageopacity="0.0"
     inkscape:pageshadow="2"
     inkscape:zoom="0.5"
     inkscape:cx="888.27249"
     inkscape:cy="321.77165"
     inkscape:document-units="px"
     inkscape:current-layer="layer2"
     showgrid="false"
     inkscape:window-width="1920"
     inkscape:window-height="1056"
     inkscape:window-x="1366"
     inkscape:window-y="0"
     inkscape:window-maximized="1"
     units="px"
     borderlayer="true" />
  <metadata
     id="metadata7">
    <rdf:RDF>
      <cc:Work
         rdf:about="">
        <dc:format>image/svg+xml</dc:format>
        <dc:type
           rdf:resource="http://purl.org/dc/dcmitype/StillImage" />
        <dc:title></dc:title>
      </cc:Work>
    </rdf:RDF>
  </metadata>
  <g
     inkscape:groupmode="layer"
     id="layer4"
     inkscape:label="bg"
     sodipodi:insensitive="true">
    <rect
       style="opacity:1;fill:#c0d8ae;fill-opacity:1;stroke:#000000;stroke-width:1.875;stroke-linecap:round;stroke-linejoin:round;stroke-miterlimit:4;stroke-dasharray:none;stroke-dashoffset:0;stroke-opacity:1;paint-order:normal"
       id="rect3886"
       width="1976.25"
       height="1130.625"
       x="-80.625"
       y="-54.375"
       ry="29.53125" />
  </g>
  <g
     inkscape:label="cal-base"
     inkscape:groupmode="layer"
     id="layer1"
     transform="translate(0,-39.86225)"
     style="display:inline"
     sodipodi:insensitive="true">
    <rect
       style="opacity:1;fill:#333333;fill-opacity:1;stroke:none;stroke-width:3.2065022;stroke-linecap:round;stroke-linejoin:round;stroke-miterlimit:4;stroke-dasharray:none;stroke-dashoffset:0;stroke-opacity:1"
       id="rect4155"
       width="803.13898"
       height="900"
       x="498.43051"
       y="96.112251"
       ry="53.880219" />
  </g>
  <g
     inkscape:label="cal-tuefed"
     id="g4235"
     inkscape:groupmode="layer"
     style="display:inline"
     transform="translate(0,268.40547)"
     sodipodi:insensitive="true">
    <rect
       ry="0"
       y="-23.702072"
       x="525"
       height="635.5932"
       width="750"
       id="rect4237"
       style="opacity:1;fill:#e6e6e6;fill-opacity:1;stroke:none;stroke-width:3.36652517;stroke-linecap:round;stroke-linejoin:round;stroke-miterlimit:4;stroke-dasharray:none;stroke-dashoffset:0;stroke-opacity:1" />
    <path
       inkscape:connector-curvature="0"
       id="path4604"
       style="font-style:normal;font-variant:normal;font-weight:bold;font-stretch:normal;font-size:80px;line-height:125%;font-family:'Open Sans';-inkscape-font-specification:'Open Sans Bold';text-align:center;letter-spacing:0px;word-spacing:0px;text-anchor:middle;fill:#b3b3b3;fill-opacity:1;stroke:none;stroke-width:1.48305082px;stroke-linecap:butt;stroke-linejoin:miter;stroke-opacity:1"
       d="M 675.13822,122.10066 H 657.1794 V 52.350924 H 634.18054 V 37.40456 h 63.95656 v 14.946364 h -22.99888 z" />
    <path
       inkscape:connector-curvature="0"
       id="path4606"
       style="font-style:normal;font-variant:normal;font-weight:bold;font-stretch:normal;font-size:80px;line-height:125%;font-family:'Open Sans';-inkscape-font-specification:'Open Sans Bold';text-align:center;letter-spacing:0px;word-spacing:0px;text-anchor:middle;fill:#b3b3b3;fill-opacity:1;stroke:none;stroke-width:1.48305082px;stroke-linecap:butt;stroke-linejoin:miter;stroke-opacity:1"
       d="m 780.22628,37.40456 v 54.803354 q 0,9.384936 -4.229,16.452596 -4.17108,7.06767 -12.10774,10.83323 -7.93663,3.76555 -18.76986,3.76555 -16.33672,0 -25.37406,-8.34216 -9.03735,-8.40009 -9.03735,-22.940941 V 37.40456 h 17.90089 v 51.848851 q 0,9.790449 3.93935,14.367059 3.93935,4.57659 13.03462,4.57659 8.80562,0 12.74497,-4.57659 3.9973,-4.634538 3.9973,-14.48293 V 37.40456 Z" />
    <path
       inkscape:connector-curvature="0"
       id="path4608"
       style="font-style:normal;font-variant:normal;font-weight:bold;font-stretch:normal;font-size:80px;line-height:125%;font-family:'Open Sans';-inkscape-font-specification:'Open Sans Bold';text-align:center;letter-spacing:0px;word-spacing:0px;text-anchor:middle;fill:#b3b3b3;fill-opacity:1;stroke:none;stroke-width:1.48305082px;stroke-linecap:butt;stroke-linejoin:miter;stroke-opacity:1"
       d="m 849.74429,122.10066 h -48.77848 v -84.6961 h 48.77848 v 14.714637 h -30.81965 v 18.596078 h 28.67618 v 14.714637 h -28.67618 v 21.840238 h 30.81965 z" />
    <path
       inkscape:connector-curvature="0"
       id="path4610"
       style="font-style:normal;font-variant:normal;font-weight:bold;font-stretch:normal;font-size:80px;line-height:125%;font-family:'Open Sans';-inkscape-font-specification:'Open Sans Bold';text-align:center;letter-spacing:0px;word-spacing:0px;text-anchor:middle;fill:#b3b3b3;fill-opacity:1;stroke:none;stroke-width:1.48305082px;stroke-linecap:butt;stroke-linejoin:miter;stroke-opacity:1"
       d="m 917.46641,98.580406 q 0,11.470464 -8.28423,18.074684 -8.2263,6.6042 -22.94094,6.6042 -13.55601,0 -23.98371,-5.09799 v -16.68432 q 8.57388,3.8235 14.48291,5.38766 5.96696,1.56415 10.89116,1.56415 5.90903,0 9.03734,-2.25933 3.18624,-2.25934 3.18624,-6.720075 0,-2.491066 -1.39036,-4.402807 -1.39036,-1.969684 -4.11315,-3.76557 -2.66485,-1.795871 -10.94908,-5.735224 -7.76284,-3.6497 -11.64427,-7.009744 -3.88142,-3.36003 -6.19869,-7.820765 -2.31727,-4.46075 -2.31727,-10.427701 0,-11.238751 7.58905,-17.669171 7.64699,-6.430405 21.08714,-6.430405 6.6042,0 12.57117,1.564145 6.02489,1.564159 12.57117,4.402807 l -5.79317,13.961544 q -6.778,-2.78072 -11.23873,-3.881426 -4.40281,-1.100706 -8.68977,-1.100706 -5.09798,0 -7.82076,2.375195 -2.72279,2.37521 -2.72279,6.198693 0,2.375195 1.1007,4.171081 1.10069,1.737957 3.4759,3.417971 2.43313,1.622087 11.41254,5.909024 11.87599,5.677311 16.27879,11.41255 4.40281,5.677297 4.40281,13.96153 z" />
    <path
       inkscape:connector-curvature="0"
       id="path4612"
       style="font-style:normal;font-variant:normal;font-weight:bold;font-stretch:normal;font-size:80px;line-height:125%;font-family:'Open Sans';-inkscape-font-specification:'Open Sans Bold';text-align:center;letter-spacing:0px;word-spacing:0px;text-anchor:middle;fill:#b3b3b3;fill-opacity:1;stroke:none;stroke-width:1.48305082px;stroke-linecap:butt;stroke-linejoin:miter;stroke-opacity:1"
       d="m 1003.0895,78.941565 q 0,20.913331 -11.934,32.036215 -11.87599,11.12288 -34.35348,11.12288 H 932.8183 v -84.6961 h 26.59065 q 20.73954,0 32.21001,10.949082 11.47054,10.949083 11.47054,30.587923 z m -18.65408,0.463454 q 0,-27.285822 -24.09958,-27.285822 h -9.55872 v 55.150953 h 7.70492 q 25.95338,0 25.95338,-27.865131 z" />
    <path
       inkscape:connector-curvature="0"
       id="path4614"
       style="font-style:normal;font-variant:normal;font-weight:bold;font-stretch:normal;font-size:80px;line-height:125%;font-family:'Open Sans';-inkscape-font-specification:'Open Sans Bold';text-align:center;letter-spacing:0px;word-spacing:0px;text-anchor:middle;fill:#b3b3b3;fill-opacity:1;stroke:none;stroke-width:1.48305082px;stroke-linecap:butt;stroke-linejoin:miter;stroke-opacity:1"
       d="m 1072.4916,122.10066 -6.1408,-20.16022 h -30.8776 l -6.1407,20.16022 h -19.3492 l 29.8927,-85.043698 h 21.9561 l 30.0087,85.043698 z m -10.4277,-35.222459 q -8.516,-27.401678 -9.6167,-30.993434 -1.0428,-3.591771 -1.5062,-5.677311 -1.9117,7.415253 -10.9491,36.670745 z" />
    <path
       inkscape:connector-curvature="0"
       id="path4616"
       style="font-style:normal;font-variant:normal;font-weight:bold;font-stretch:normal;font-size:80px;line-height:125%;font-family:'Open Sans';-inkscape-font-specification:'Open Sans Bold';text-align:center;letter-spacing:0px;word-spacing:0px;text-anchor:middle;fill:#b3b3b3;fill-opacity:1;stroke:none;stroke-width:1.48305082px;stroke-linecap:butt;stroke-linejoin:miter;stroke-opacity:1"
       d="m 1128.8012,72.27942 17.6691,-34.87486 h 19.3492 l -28.0969,51.73298 v 32.96312 h -17.8429 V 89.716864 L 1091.7828,37.40456 h 19.465 z" />
    <path
       inkscape:connector-curvature="0"
       id="path4619"
       style="font-style:normal;font-variant:normal;font-weight:bold;font-stretch:normal;font-size:320px;line-height:125%;font-family:'Open Sans';-inkscape-font-specification:'Open Sans Bold';letter-spacing:0px;word-spacing:0px;fill:#b3b3b3;fill-opacity:1;stroke:none;stroke-width:1.48305082px;stroke-linecap:butt;stroke-linejoin:miter;stroke-opacity:1"
       d="M 883.54742,529.62102 H 646.72274 v -49.82124 l 85.0437,-85.9706 q 37.77145,-38.69836 49.35778,-53.52887 11.58634,-15.06223 16.68433,-27.8072 5.09799,-12.74497 5.09799,-26.41684 0,-20.39195 -11.35462,-30.3562 -11.12288,-9.96425 -29.89274,-9.96425 -19.69677,0 -38.2349,9.03734 -18.53813,9.03735 -38.69836,25.72167 l -38.93009,-46.11361 q 25.02649,-21.31886 41.47909,-30.12447 16.45259,-8.80562 35.91764,-13.44016 19.46503,-4.86625 43.56461,-4.86625 31.74656,0 56.07785,11.58633 24.33131,11.58633 37.77146,32.44174 13.44014,20.8554 13.44014,47.7357 0,23.4044 -8.34215,44.02806 -8.11044,20.39196 -25.48994,41.94254 -17.14778,21.55058 -60.71239,61.40757 l -43.56462,41.01563 v 3.24417 h 147.6099 z" />
    <path
       inkscape:connector-curvature="0"
       id="path4621"
       style="font-style:normal;font-variant:normal;font-weight:bold;font-stretch:normal;font-size:320px;line-height:125%;font-family:'Open Sans';-inkscape-font-specification:'Open Sans Bold';letter-spacing:0px;word-spacing:0px;fill:#b3b3b3;fill-opacity:1;stroke:none;stroke-width:1.48305082px;stroke-linecap:butt;stroke-linejoin:miter;stroke-opacity:1"
       d="M 1154.2042,529.62102 H 917.37952 v -49.82124 l 85.04368,-85.9706 q 37.7714,-38.69836 49.3578,-53.52887 11.5863,-15.06223 16.6843,-27.8072 5.098,-12.74497 5.098,-26.41684 0,-20.39195 -11.3546,-30.3562 -11.1228,-9.96425 -29.8927,-9.96425 -19.6968,0 -38.23495,9.03734 -18.53813,9.03735 -38.69836,25.72167 l -38.93008,-46.11361 q 25.02648,-21.31886 41.47908,-30.12447 16.45259,-8.80562 35.91764,-13.44016 19.46497,-4.86625 43.56467,-4.86625 31.7465,0 56.0778,11.58633 24.3313,11.58633 37.7714,32.44174 13.4402,20.8554 13.4402,47.7357 0,23.4044 -8.3421,44.02806 -8.1105,20.39196 -25.49,41.94254 -17.1478,21.55058 -60.7124,61.40757 l -43.5647,41.01563 v 3.24417 h 147.61 z" />
    <path
       inkscape:connector-curvature="0"
       id="path4569"
       style="font-style:normal;font-variant:normal;font-weight:normal;font-stretch:normal;font-size:77.5px;line-height:125%;font-family:'Permanent Marker';-inkscape-font-specification:'Permanent Marker';text-align:center;letter-spacing:0px;word-spacing:0px;text-anchor:middle;fill:#aa0000;fill-opacity:1;stroke:none;stroke-width:1.48305082px;stroke-linecap:butt;stroke-linejoin:miter;stroke-opacity:1"
       d="m 567.96671,465.61639 q -0.7893,1.20132 -0.551,2.65827 0.20352,1.35024 0.30033,2.73523 0.0969,1.38499 -0.44427,2.62353 -0.46913,1.09707 -2.53169,1.65056 -0.25317,0.67265 -0.005,0.70989 0.35494,0.003 0.84639,0.7868 -1.5637,0.27302 -2.06507,0.90845 -0.50138,0.6354 -1.39242,1.1616 -2.698,0.0522 -5.03113,-1.31299 -2.26116,-1.5066 -4.30638,-3.43762 -1.9385,-1.96579 -3.69827,-4.10779 -1.65305,-2.17676 -3.20436,-3.67841 -0.13896,-0.42691 0.32268,-0.45918 0.32018,-0.10426 0.64037,-0.20849 -0.88114,-0.89354 -1.51159,-2.10478 -0.77192,-1.28321 -1.797,-1.89379 0.94066,-7.62487 2.13451,-15.92237 1.15909,-8.40425 2.28343,-16.91522 1.19632,-8.65245 2.2859,-17.27013 1.16157,-8.75916 2.10721,-17.09391 3.33589,0.0943 6.59729,0.68503 3.33342,0.44923 6.30692,1.60586 2.9735,1.15662 5.4084,3.19687 2.50688,1.89875 4.083,4.92686 -0.005,0.70987 -0.39465,0.60065 -0.38967,-0.10916 -0.46416,0.38721 0.74216,0.46661 0.8464,0.78681 0.17625,0.1787 0.17374,0.53363 -0.0373,0.24823 0.10174,0.67513 0.13896,0.42692 0.91587,1.00027 -0.56839,0.067 -0.67759,0.4567 -0.14401,0.28295 -0.74712,0.24325 1.02013,1.32044 1.08469,2.24377 0.0645,0.92331 -0.11909,1.80941 -0.21841,0.77936 -0.2606,1.73744 0.0299,0.8166 0.90844,2.06507 -0.42693,0.13896 -0.57089,0.42195 -0.0719,0.14148 -0.10915,0.38967 -0.0372,0.24821 -0.18118,0.53117 -0.0721,0.14148 -0.53365,0.17375 1.22367,2.67068 2.05517,5.5871 0.79673,2.80969 1.66299,5.83281 0.83147,2.91642 1.94596,5.97677 1.11447,3.06038 2.93876,6.12571 3.72058,-4.16242 5.10555,-9.33502 1.49169,-5.20737 1.38992,-10.95828 0.005,-5.78566 -1.0872,-12.04043 -0.98539,-6.28951 -2.04027,-12.7925 0.79177,-1.55625 0.87614,-3.4724 0.19111,-1.9509 0.0273,-3.90426 -0.0571,-1.98814 -0.22091,-3.94151 -0.0918,-2.09483 0.27551,-3.86704 1.99059,-0.41204 3.58407,0.13155 1.66545,0.40207 3.22171,1.19384 1.52151,0.68505 3.11498,1.22862 1.59348,0.54355 3.61884,0.23825 2.18918,1.64808 4.13014,3.25893 1.90623,1.50411 3.13238,3.81986 -0.29288,1.27578 -0.19608,2.66077 0.0969,1.38498 0.0869,2.80472 0.0969,1.38498 -0.19607,2.66078 -0.29288,1.27575 -1.22364,2.4051 0.72229,3.30609 0.98539,6.28951 0.26312,2.98343 0.5982,5.82539 0.33507,2.84194 0.8464,5.8626 0.51132,3.02067 1.73001,6.4012 0.0471,3.40788 -0.0497,7.09869 -0.13155,3.58406 0.23831,6.53276 -1.5066,2.26115 -1.91613,4.99141 -0.40954,2.73026 -0.92578,5.49527 -0.39465,0.60065 -0.57089,0.42196 -0.21099,-0.28543 -1.09955,-0.11419 0.4195,0.92579 -0.0103,1.41973 -0.35743,0.35245 0.59324,1.45945 -1.5364,1.44454 -2.47213,3.28375 -0.93572,1.8392 -2.26112,3.56921 -1.21868,1.69525 -3.32098,2.85188 -2.03031,1.01517 -5.96934,0.88116 -6.48065,-2.13952 -12.27627,-5.80051 -5.7956,-3.66102 -10.47429,-9.69239 -0.96303,0.66767 -1.14918,1.9087 -0.18615,1.24102 -0.23083,2.55403 -0.0447,1.31301 -0.15882,2.41258 -0.11419,1.09954 -0.96802,1.37753 0.0994,1.03005 -0.26309,2.09237 -0.29038,0.92083 -0.54603,1.94841 -0.2904,0.92085 -0.29784,1.98564 0.0992,1.03005 1.01516,2.03032 z" />
    <path
       inkscape:connector-curvature="0"
       id="path4571"
       style="font-style:normal;font-variant:normal;font-weight:normal;font-stretch:normal;font-size:77.5px;line-height:125%;font-family:'Permanent Marker';-inkscape-font-specification:'Permanent Marker';text-align:center;letter-spacing:0px;word-spacing:0px;text-anchor:middle;fill:#aa0000;fill-opacity:1;stroke:none;stroke-width:1.48305082px;stroke-linecap:butt;stroke-linejoin:miter;stroke-opacity:1"
       d="m 631.63381,451.96984 q -1.13182,-0.57583 -1.94097,-1.61086 -0.70242,-1.06975 -2.33313,-1.36512 -0.7347,-1.53142 -1.82185,-3.42027 -1.01516,-2.0303 -2.13705,-4.02587 -1.04991,-2.13705 -1.95836,-4.20211 -0.83648,-2.20653 -1.10701,-4.12516 -0.0994,-1.03007 0.0497,-2.02288 0.25564,-1.02756 0.43932,-1.91367 0.25565,-1.02757 0.1911,-1.9509 0.0422,-0.95807 -0.44923,-1.74239 0.6056,-0.31526 0.53859,-0.88362 0.005,-0.70987 0.9283,-0.7744 -0.0174,-2.59126 0.1762,-4.8971 0.1936,-2.30582 0.52866,-4.53968 0.33508,-2.23385 0.67015,-4.46769 0.40704,-2.37532 0.46162,-5.10806 -2.37036,-1.11692 -3.84966,-2.76003 -1.40732,-1.78461 -2.49448,-3.67344 -1.08714,-1.88884 -1.96083,-3.84718 -0.90843,-2.06507 -2.24381,-3.99112 0.65528,-2.33813 2.08742,-4.10285 1.39738,-1.87147 3.28871,-3.31355 1.96329,-1.58356 4.38577,-2.84446 2.38773,-1.36761 5.0609,-2.94621 4.60172,-3.26889 8.37939,-5.44317 3.74293,-2.28103 7.41139,-4.06564 3.63372,-1.89133 7.65714,-3.67346 3.98864,-1.88885 9.11904,-4.6216 0.21099,0.28543 0.42443,0.21594 0.32019,-0.10427 0.7471,-0.24325 0.56343,0.64284 1.41725,0.36484 -0.10426,-0.32018 -0.28051,-0.49888 -0.10425,-0.32018 -0.17373,-0.53363 0.21345,-0.0696 0.56839,-0.067 0.46168,-0.0322 0.70988,0.005 0.35494,0.003 0.53363,-0.17374 0.144,-0.28297 -0.13644,-0.78187 2.01047,1.82432 4.52478,2.65827 2.47959,0.72723 5.28182,0.99529 0.41949,0.9258 0.45175,1.38747 0.13896,0.42691 0.17123,0.88857 -0.003,0.35495 0.17125,0.88859 0.13897,0.42691 0.63045,1.21125 -0.76945,3.43764 -2.48948,5.76829 -1.61334,2.2959 -3.79009,3.94896 -2.17674,1.65304 -4.8127,2.98343 -2.52919,1.29565 -5.23711,2.76752 -2.63594,1.33038 -5.2396,3.12245 -2.60368,1.79204 -4.82262,4.40316 -0.95807,-0.0421 -1.67042,0.30779 -0.64037,0.2085 -1.31796,0.66518 -0.67761,0.45672 -1.56866,0.98292 -0.78434,0.49146 -2.13456,0.69497 -0.6106,1.02509 -1.68034,1.72752 -0.96306,0.66768 -2.03281,1.3701 0.91589,1.00027 1.19139,2.20903 0.38225,1.174 0.98042,1.92358 4.62158,-1.03254 9.92572,-3.23167 5.26939,-2.30583 10.42957,-4.222 0.2805,0.49889 0.13644,0.78184 -0.14401,0.28297 0.0298,0.81661 1.16905,0.32762 2.33562,1.01018 1.16658,0.68258 2.33315,1.36512 1.23854,0.5411 2.4076,0.86871 1.1343,0.2209 2.38028,-0.30281 0.88113,0.89353 1.47684,1.99804 0.59568,1.10452 0.47904,2.559 -1.68284,2.08245 -3.22417,4.23688 -1.57611,2.04769 -3.43516,3.95144 -1.75233,1.86899 -4.07056,3.45006 -2.31823,1.58107 -5.34136,2.44732 -0.53364,0.17375 -0.96057,0.31275 -0.32017,0.10425 -0.9928,-0.14892 -0.89355,0.88113 -2.74268,1.36513 -1.77715,0.34253 -2.77741,1.25842 -1.66794,-0.0471 -3.69578,0.61308 -1.9211,0.62548 -3.58904,0.57835 -1.01764,3.40041 -1.71755,7.0515 -0.73469,3.54437 -0.90346,7.37668 4.58436,-0.78436 7.43127,-1.8293 2.84691,-1.04499 5.30413,-2.19913 2.45724,-1.15416 5.0212,-2.34308 2.67067,-1.22365 6.65437,-2.40265 2.25122,-2.14946 5.52752,-3.68835 3.34829,-1.68036 6.02393,-3.61388 1.17152,-0.0273 2.23138,0.69 1.02509,0.61058 1.9782,1.36264 1.02509,0.61058 1.98068,1.00769 0.95559,0.39713 2.06009,-0.19856 0.7074,0.35989 1.05737,1.07224 0.45669,0.67759 0.77191,1.28321 0.42196,0.57089 0.88114,0.89355 0.42444,0.21594 1.24351,-0.16878 -0.67262,4.82263 -2.50436,7.89789 -1.72502,3.04053 -4.50988,5.36374 -2.71288,2.18174 -6.45332,4.10782 -3.66846,1.78461 -8.19324,4.20215 -1.10452,0.5957 -2.02784,0.66024 -0.85136,-0.077 -1.70516,0.20104 -2.81464,1.50661 -6.80331,3.39547 -3.88193,1.85411 -8.07906,3.10261 -4.19715,1.24846 -8.35212,1.53889 -4.15495,0.29042 -7.51566,-1.33035 z" />
    <path
       inkscape:connector-curvature="0"
       id="path4573"
       style="font-style:normal;font-variant:normal;font-weight:normal;font-stretch:normal;font-size:77.5px;line-height:125%;font-family:'Permanent Marker';-inkscape-font-specification:'Permanent Marker';text-align:center;letter-spacing:0px;word-spacing:0px;text-anchor:middle;fill:#aa0000;fill-opacity:1;stroke:none;stroke-width:1.48305082px;stroke-linecap:butt;stroke-linejoin:miter;stroke-opacity:1"
       d="m 701.21561,424.94747 q -0.91589,-1.00026 -1.79703,-1.89379 -0.88111,-0.89355 -1.69276,-1.57362 -2.11472,-2.14448 -3.73551,-3.85958 -1.62078,-1.7151 -3.34333,-4.10531 -0.27055,-1.91863 -0.91341,-6.43099 -0.53615,-4.54714 -1.10208,-9.91085 -0.60066,-5.47043 -1.12935,-11.08236 -0.42198,-5.64667 -0.35747,-9.79915 0.0969,-3.69081 0.26803,-7.87803 0.27799,-4.22198 0.97791,-7.87307 0.7719,-3.79259 2.07001,-6.69412 1.2981,-2.90151 3.50713,-4.0929 0.91836,0.64531 1.8392,0.93572 0.88609,0.18365 1.59597,0.18862 2.64836,1.97075 4.94675,3.22914 2.26362,1.15168 5.16763,2.09484 0.4021,3.41033 0.40708,7.77628 0.077,4.22444 -0.0248,8.62513 0.005,4.36592 -0.0594,8.5184 -0.0992,4.04575 0.0223,6.9572 0.0545,2.34307 0.31771,5.32648 0.23085,2.52177 0.66768,6.03884 0.5436,3.48232 1.29567,7.60501 1.3552,-0.91341 2.75259,-2.78488 1.50412,-1.90622 2.65331,-3.81493 1.39987,-2.22639 2.62351,-4.63151 1.65553,-3.25399 2.70293,-5.8378 1.04742,-2.58382 1.73991,-5.17011 0.76445,-2.7278 1.42468,-5.77576 0.73218,-3.18945 1.68529,-7.51318 0.91337,-3.72061 1.79449,-7.90287 0.98784,-4.21701 2.07992,-8.11384 1.09209,-3.89682 2.2512,-7.22526 1.12437,-3.43516 2.34554,-5.48535 1.55625,0.79177 3.46743,1.58602 2.01791,0.75951 4.00603,0.7024 1.12935,0.93076 2.08246,1.68283 1.02508,0.6106 1.94344,1.25591 1.23607,0.89601 2.18918,1.64809 1.05984,0.71731 1.97572,1.71758 0.17125,0.88857 0.30283,2.38026 0.23828,1.45698 0.47409,3.26888 0.20103,1.70515 0.3301,3.55183 0.23581,1.8119 0.43686,3.51705 0.49643,5.15026 0.76203,7.77875 0.26558,2.6285 0.50387,4.08546 0.23826,1.45696 0.44429,2.45227 0.31274,0.96055 0.86872,2.6682 0.41699,1.28074 1.04743,2.49198 0.59572,1.10451 1.22615,2.31576 0.70242,1.06976 1.79702,1.89379 l 3.83722,-5.6169 q 1.61334,-2.2959 2.59622,-5.80305 1.05486,-3.64862 1.65302,-7.97484 0.67013,-4.4677 1.05981,-9.43429 0.35491,-5.07331 0.64032,-10.36009 0.16878,-3.83229 0.37228,-7.55786 0.27552,-3.86704 0.68998,-7.30715 0.37975,-3.54687 0.86125,-6.41861 0.5535,-3.0132 1.27825,-5.13785 3.4724,0.87615 6.09097,2.0303 2.7253,1.11939 4.94922,2.8742 2.29591,1.61332 4.08796,4.21699 1.86403,2.46219 3.54191,6.16542 -0.88855,5.24706 -1.38744,10.60333 -0.49885,5.35628 -0.96298,10.81927 -0.54603,7.02423 -1.30552,14.11793 -0.6875,6.95222 -2.18912,13.57932 -1.50163,6.62708 -4.13507,12.67834 -2.56144,5.90978 -6.85539,10.84908 -1.59843,0.1663 -2.66572,0.51379 -1.17401,0.38224 -1.92359,0.98041 -0.64284,0.56343 -1.10946,1.30558 -5.0361,-0.60313 -8.99002,-3.68333 -3.98867,-3.18696 -8.1486,-7.26246 -0.56345,-0.64286 -1.19884,-1.14424 -0.56343,-0.64284 -1.23359,-1.25095 l -2.8916,-2.71782 -1.7275,-1.68036 -1.04246,1.87395 -1.58107,2.75757 -0.86374,1.69773 q -2.30085,4.17234 -4.74318,8.2727 -2.47707,3.99362 -5.41333,7.66461 -2.97101,3.56423 -6.75365,6.44839 -3.6759,2.8494 -8.44393,4.51985 -0.99283,-0.14893 -1.84416,-0.22587 -0.74462,-0.11167 -1.48924,-0.22338 -2.83698,-0.37478 -4.7854,-0.92081 -1.94841,-0.54605 -4.8127,-2.09236 z" />
    <path
       inkscape:connector-curvature="0"
       id="path4575"
       style="font-style:normal;font-variant:normal;font-weight:normal;font-stretch:normal;font-size:77.5px;line-height:125%;font-family:'Permanent Marker';-inkscape-font-specification:'Permanent Marker';text-align:center;letter-spacing:0px;word-spacing:0px;text-anchor:middle;fill:#aa0000;fill-opacity:1;stroke:none;stroke-width:1.48305082px;stroke-linecap:butt;stroke-linejoin:miter;stroke-opacity:1"
       d="m 842.20596,363.46155 q -3.79259,-0.7719 -6.57745,-3.52449 -2.78487,-2.75258 -3.97132,-5.67146 -0.51379,-2.66575 0.10174,-4.4007 0.47406,-1.80694 1.58355,-3.1125 1.0747,-1.41229 2.4299,-2.32569 1.32045,-1.02014 2.60367,-1.79205 l 1.77468,0.0119 q 0.70737,0.3599 1.38002,0.61307 0.77936,0.21841 1.452,0.47158 0.92828,-0.7744 0.86374,-1.69774 0.0422,-0.95805 0.0844,-1.91613 -0.0621,-1.27825 -0.0174,-2.59125 0.0447,-1.31303 0.30281,-2.69553 -0.41949,-0.92579 -0.44923,-1.74241 -0.0298,-0.81659 0.0103,-1.41972 -0.8141,-0.32515 -1.13429,-0.22091 -0.2482,-0.0373 -0.95807,-0.0421 -0.32018,0.10426 -0.64036,0.20848 -0.35494,-0.003 -0.8166,0.0299 -1.98316,-0.65277 -2.76004,-1.22612 -0.70492,-0.71483 -1.51655,-1.39491 -0.81164,-0.68009 -1.44703,-1.18146 -0.63541,-0.50138 -1.34279,-0.86126 l -1.55874,-0.43684 0.22339,-1.48923 q 0.144,-0.28296 0.0397,-0.60314 -0.13896,-0.4269 -0.80915,-1.03502 -0.77192,-1.28321 -0.76699,-1.99308 l -0.20353,-1.35022 q 0.61554,-1.73497 0.65278,-1.98315 l 0.71978,-1.41479 q 2.24626,-1.4396 4.56449,-3.02068 2.28347,-1.6878 4.46025,-3.34086 2.17674,-1.65305 4.46022,-3.34084 2.28349,-1.68783 4.63647,-3.16217 0.61059,-1.0251 1.53639,-1.44457 0.99777,-0.56094 1.81685,-0.94564 0.74711,-0.24325 1.35271,-0.55851 0.60561,-0.31524 0.78681,-0.84636 1.60589,-1.23113 3.17455,-2.21402 2.92384,-1.89631 7.77129,-4.77301 4.84743,-2.87673 11.18411,-5.53006 l 2.20654,-0.83648 q 0.67512,-0.10174 1.31548,-0.31024 0.60562,-0.31525 1.24599,-0.52373 5.54988,-1.80697 8.47621,1.01761 1.24103,0.18613 2.37284,0.76197 1.09707,0.46912 2.08742,0.97295 0.70739,0.35989 1.27331,0.64783 0.53115,0.18119 0.92084,0.29038 l 1.1318,0.57584 q 2.00799,2.17924 2.06014,4.87722 -0.22338,1.48924 -0.90099,1.94594 -0.67759,0.4567 -1.3552,0.91342 l -1.14421,1.19882 q -1.42224,0.34498 -2.16934,0.58823 -0.64036,0.20849 -1.49418,0.48649 -3.20184,1.04247 -7.33198,2.85933 -4.05815,1.67541 -8.19077,3.84723 -4.16735,2.06508 -7.98226,4.48758 -3.84966,2.31577 -6.56254,4.4975 -0.64532,0.91837 -1.85904,1.90375 -0.28542,0.21099 -0.78683,0.84637 0.38475,0.81907 0.55599,1.70765 0.13645,0.78187 0.16631,1.59845 0.067,0.56839 0.16879,1.2435 0.17376,0.53363 0.2755,1.20876 -1.37257,3.39795 -0.0844,6.99196 l -0.18614,1.24102 q -0.28792,0.5659 -0.33012,1.52397 0.0299,0.81662 0.52125,1.60094 l 0.84389,1.14174 q 2.06506,-0.90844 4.02341,-1.78212 2.03031,-1.01517 4.27409,-2.09986 2.81464,-1.50659 5.69878,-2.79977 2.95612,-1.43463 6.2647,-2.51186 l 4.16239,-1.35521 -0.64781,1.27329 1.20878,-0.27548 -0.0844,1.91614 q 0.85133,0.077 1.24102,0.18614 0.46167,-0.0322 0.85136,0.077 l 1.09458,0.82404 q 0.63789,0.14638 1.30803,0.75453 0.63542,0.50138 1.12438,1.64064 l 0.0273,1.17152 -2.93128,8.03691 -0.36237,1.06232 -1.17152,0.0273 q -2.0626,0.55349 -3.70322,1.67788 -0.78433,0.49145 -1.64066,1.12439 -0.89105,0.52618 -1.8516,0.83892 -2.42248,1.26089 -4.02588,2.13707 -1.63814,0.76943 -3.27631,1.53888 -2.20902,1.1914 -4.31132,2.34804 -2.03033,1.01516 -3.70817,2.38775 -1.13925,0.48899 -1.35272,0.55849 -0.24821,-0.0373 -0.46166,0.0322 -1.06729,0.34749 -2.03032,1.01517 -0.96304,0.66767 -1.81934,1.3006 -0.46662,0.74213 -0.47158,1.45201 -0.0397,0.60314 -0.0447,1.31301 0.0299,0.81659 -0.15389,1.70268 -0.11168,0.74461 -0.40207,1.66545 l 0.73223,1.88635 q -0.89105,0.52621 -0.8563,0.63293 0,0 -0.10677,0.0347 0.27799,0.85383 0.20105,1.70516 0.0298,0.81661 0.0248,1.52647 -0.0744,0.49642 -0.077,0.85134 -0.003,0.35494 0.10174,0.67513 1.69277,1.57361 1.95835,4.20211 0.23334,2.16684 -0.41944,4.14999 -0.68751,1.87645 -2.01046,3.2515 -1.63815,0.76945 -2.59623,0.72723 -0.85136,-0.077 -1.80942,-0.11909 -0.60313,-0.0397 -1.17152,0.0273 -0.60314,-0.0397 -1.17154,0.0273 l -1.62823,-0.65028 q -0.52867,-0.53613 -1.12934,-0.93076 -0.6354,-0.50138 -1.27079,-1.00275 -0.7769,-0.57335 -1.55379,-1.14672 -0.77689,-0.57334 -1.51654,-1.39489 -1.96331,-3.49225 -2.33562,-6.08599 -0.30037,-2.73523 -0.24575,-5.46796 -0.0645,-0.92333 -0.0943,-1.73993 -0.0299,-0.81658 -0.0943,-1.73992 z" />
    <path
       inkscape:connector-curvature="0"
       id="path4577"
       style="font-style:normal;font-variant:normal;font-weight:normal;font-stretch:normal;font-size:77.5px;line-height:125%;font-family:'Permanent Marker';-inkscape-font-specification:'Permanent Marker';text-align:center;letter-spacing:0px;word-spacing:0px;text-anchor:middle;fill:#aa0000;fill-opacity:1;stroke:none;stroke-width:1.48305082px;stroke-linecap:butt;stroke-linejoin:miter;stroke-opacity:1"
       d="m 912.32893,360.57964 q -1.13184,-0.57583 -1.94099,-1.61085 -0.70243,-1.06975 -2.33313,-1.36511 -0.73469,-1.53144 -1.82184,-3.42028 -1.01517,-2.03031 -2.13707,-4.02587 -1.0499,-2.13704 -1.95835,-4.20211 -0.83649,-2.20652 -1.107,-4.12516 -0.0994,-1.03006 0.0497,-2.02289 0.25565,-1.02756 0.43931,-1.91366 0.25565,-1.02757 0.19112,-1.9509 0.0422,-0.95808 -0.44923,-1.74239 0.60561,-0.31525 0.53859,-0.88363 0.005,-0.70986 0.9283,-0.77439 -0.0174,-2.59128 0.17621,-4.89709 0.19358,-2.30584 0.52867,-4.53968 0.33505,-2.23387 0.67013,-4.46771 0.40705,-2.37533 0.46165,-5.10807 -2.37037,-1.11692 -3.84968,-2.76002 -1.40734,-1.78459 -2.49447,-3.67344 -1.08715,-1.88883 -1.96085,-3.84716 -0.90843,-2.06508 -2.24378,-3.99114 0.65524,-2.33811 2.08739,-4.10283 1.39738,-1.87149 3.28869,-3.31355 1.96331,-1.58357 4.38579,-2.84447 2.38775,-1.36761 5.0609,-2.94622 4.60171,-3.26888 8.37939,-5.44316 3.74293,-2.28102 7.41139,-4.06564 3.63372,-1.89133 7.65714,-3.67345 3.98865,-1.88886 9.11905,-4.62162 0.211,0.28542 0.42442,0.21593 0.3202,-0.10426 0.74709,-0.24324 0.56343,0.64285 1.41726,0.36485 -0.10425,-0.32017 -0.28049,-0.49889 -0.10427,-0.32018 -0.17375,-0.53363 0.21344,-0.0696 0.5684,-0.067 0.46167,-0.0322 0.70987,0.005 0.35494,0.003 0.53363,-0.17376 0.14401,-0.28294 -0.13644,-0.78184 2.01047,1.8243 4.52479,2.65826 2.47957,0.72723 5.28182,0.99528 0.41949,0.92579 0.45173,1.38748 0.13896,0.4269 0.17125,0.88857 -0.003,0.35495 0.17123,0.88858 0.13896,0.42692 0.63046,1.21124 -0.76943,3.43764 -2.48948,5.76829 -1.61332,2.29592 -3.79008,3.94897 -2.17675,1.65305 -4.81269,2.98344 -2.5292,1.29565 -5.23712,2.76753 -2.63595,1.33038 -5.23961,3.12243 -2.60366,1.79205 -4.82262,4.40317 -0.95807,-0.0422 -1.67041,0.30779 -0.64038,0.20849 -1.31797,0.66518 -0.6776,0.4567 -1.56866,0.98291 -0.78434,0.49145 -2.13456,0.69498 -0.61058,1.02509 -1.68034,1.72752 -0.96304,0.66768 -2.03279,1.3701 0.91586,1.00028 1.19138,2.20902 0.38224,1.17402 0.98041,1.92358 4.62159,-1.03253 9.92574,-3.23167 5.26939,-2.30583 10.42955,-4.222 0.28051,0.49889 0.13644,0.78185 -0.144,0.28297 0.0298,0.8166 1.16906,0.32762 2.33561,1.0102 1.16657,0.68255 2.33314,1.36512 1.23855,0.54108 2.40762,0.86871 1.13429,0.2209 2.38026,-0.30283 0.88114,0.89354 1.47684,1.99806 0.5957,1.10452 0.47905,2.55898 -1.68283,2.08246 -3.22418,4.23689 -1.57609,2.04769 -3.43515,3.95143 -1.75233,1.86899 -4.07055,3.45007 -2.31824,1.58107 -5.34138,2.44732 -0.53363,0.17376 -0.96053,0.31274 -0.32021,0.10427 -0.99283,-0.1489 -0.89354,0.88112 -2.74267,1.36513 -1.77716,0.34252 -2.77741,1.25841 -1.66794,-0.0471 -3.69579,0.61308 -1.92109,0.62547 -3.58903,0.57833 -1.01764,3.40043 -1.71755,7.05152 -0.73469,3.54437 -0.90345,7.37667 4.58434,-0.78434 7.43125,-1.8293 2.84692,-1.04498 5.30414,-2.19913 2.45724,-1.15416 5.02119,-2.34308 2.67068,-1.22364 6.65438,-2.40264 2.25122,-2.14947 5.52752,-3.68835 3.34829,-1.68035 6.02393,-3.61388 1.17154,-0.0273 2.23137,0.68999 1.0251,0.61058 1.9782,1.36264 1.02508,0.61059 1.98069,1.00771 0.95559,0.39713 2.06009,-0.19857 0.7074,0.35989 1.05735,1.07225 0.4567,0.67759 0.77194,1.28321 0.42194,0.57088 0.88113,0.89354 0.42441,0.21594 1.24351,-0.16877 -0.67263,4.82262 -2.50437,7.89788 -1.72501,3.04054 -4.50987,5.36373 -2.71288,2.18174 -6.45333,4.10783 -3.66846,1.78461 -8.19323,4.20215 -1.10452,0.59569 -2.02784,0.66022 -0.85134,-0.077 -1.70517,0.20106 -2.81463,1.50662 -6.8033,3.39546 -3.88193,1.85412 -8.07907,3.1026 -4.19715,1.24848 -8.35211,1.5389 -4.15496,0.29043 -7.51565,-1.33034 z" />
    <path
       inkscape:connector-curvature="0"
       id="path4579"
       style="font-style:normal;font-variant:normal;font-weight:normal;font-stretch:normal;font-size:77.5px;line-height:125%;font-family:'Permanent Marker';-inkscape-font-specification:'Permanent Marker';text-align:center;letter-spacing:0px;word-spacing:0px;text-anchor:middle;fill:#aa0000;fill-opacity:1;stroke:none;stroke-width:1.48305082px;stroke-linecap:butt;stroke-linejoin:miter;stroke-opacity:1"
       d="m 986.89469,341.61402 q -3.33836,0.26061 -5.60199,-0.89104 -2.19165,-1.29315 -3.80997,-3.36317 -1.54633,-2.21151 -2.80474,-4.98891 -1.15167,-2.81218 -2.47959,-5.80303 -0.0248,-1.52648 0.30281,-2.69552 0.43436,-1.20381 -0.22836,-2.8767 0.062,-3.79754 -0.0199,-7.31214 -0.0819,-3.51458 -0.8737,-7.03414 0.32763,-1.16904 0.86375,-1.69772 -1.12688,-6.36151 -3.8522,-12.5567 -2.72531,-6.19519 -5.9917,-11.15184 -0.27549,-1.20876 -0.2358,-1.8119 0.005,-0.70987 -0.3475,-1.06727 -0.5262,-0.89107 0.32762,-1.16905 0.85382,-0.278 1.70766,-0.556 -0.62549,-1.92111 -1.96332,-3.49223 -1.26586,-1.71261 -2.70546,-3.95888 0.22834,-2.19909 -0.0422,-4.11772 -0.27056,-1.91863 0.0969,-3.69081 3.7628,-0.0447 7.5231,0.26557 3.7603,0.31023 7.4139,0.65522 3.61884,0.23827 7.13094,0.51129 3.47735,0.16627 6.70899,-0.0596 5.66654,1.81436 11.54652,3.55921 5.95195,1.6034 11.18665,4.26662 5.3067,2.52175 9.608,6.66925 4.3015,4.1475 6.9523,10.8391 -0.01,0.70986 0.027,1.17153 0.032,0.46166 0.064,0.92332 0.032,0.46168 0.2061,0.99533 0.1736,0.53363 0.4864,1.49418 -1.653,7.97484 -6.0289,14.47535 -4.3758,6.50051 -10.1664,12.28123 -5.7907,5.78073 -12.39536,11.23631 -6.53274,5.31411 -12.60631,10.95086 z m -9.24338,-63.92029 q -0.96056,0.31274 -1.24847,0.87866 2.84444,4.38576 4.87477,8.4464 2.03034,4.06064 3.4203,8.32976 1.4967,4.23437 2.42252,8.8907 0.92582,4.65632 1.66797,10.19875 1.35272,-0.55849 2.281,-1.33286 0.9283,-0.77441 1.82183,-1.65555 1.00026,-0.91587 2.03528,-1.72503 1.14174,-0.84391 2.70793,-1.47186 0.14888,-0.99283 0.65024,-1.62823 0.57337,-0.77688 0.93327,-1.48429 2.32065,-1.936 4.60665,-3.97872 2.286,-2.04274 4.0408,-4.26666 1.7548,-2.22394 2.9437,-4.73579 1.1889,-2.51184 1.4942,-5.56228 -1.3751,-1.32293 -3.0033,-1.97322 -1.5563,-0.79177 -3.2912,-1.40732 -1.663,-0.75702 -3.326,-1.51405 -1.591,-0.89849 -2.85929,-2.25616 -1.77717,0.34253 -3.2664,0.11908 -1.52398,-0.33011 -2.90649,-0.58823 -1.41725,-0.36486 -3.01322,-0.5535 -1.48922,-0.22337 -3.33836,0.26064 -3.2614,-0.59071 -5.67644,-0.39463 -2.4498,0.0895 -3.97129,-0.59567 z" />
    <path
       inkscape:connector-curvature="0"
       id="path4581"
       style="font-style:normal;font-variant:normal;font-weight:normal;font-stretch:normal;font-size:77.5px;line-height:125%;font-family:'Permanent Marker';-inkscape-font-specification:'Permanent Marker';text-align:center;letter-spacing:0px;word-spacing:0px;text-anchor:middle;fill:#aa0000;fill-opacity:1;stroke:none;stroke-width:1.48305082px;stroke-linecap:butt;stroke-linejoin:miter;stroke-opacity:1"
       d="m 1066.3774,314.90932 q -4.4875,2.16934 -8.6772,2.35301 -4.1898,0.1837 -8.0146,-1.04987 -3.7181,-1.26833 -6.9672,-3.6337 -3.1422,-2.40015 -5.6764,-5.47043 -3.3235,-6.94477 -3.7405,-13.30132 -0.4517,-6.46326 0.7966,-12.41771 1.2485,-5.95444 3.4525,-11.51177 2.3109,-5.59207 4.4057,-10.75973 0.8513,0.077 1.1739,-0.38224 0.4295,-0.49391 0.5759,-1.13181 0.2532,-0.67264 0.5064,-1.34527 0.3599,-0.70739 0.9307,-1.12935 0.1142,-1.09954 0.5461,-1.9484 0.5386,-0.88362 1.112,-1.6605 0.6452,-0.91836 1.0771,-1.76723 0.5387,-0.8836 0.7596,-2.01791 0.9977,-0.56094 1.5711,-1.33783 0.6801,-0.81163 1.1119,-1.6605 0.5386,-0.8836 1.112,-1.6605 0.5733,-0.77688 1.5364,-1.44456 l -0.4517,-1.38747 q 2.0004,-1.83176 2.6507,-3.45999 0.6503,-1.62822 1.4843,-4.14256 1.1392,-0.48899 1.7796,-0.69748 0.7471,-0.24324 2.1718,-0.94319 0.3699,-2.12713 0.9457,-3.25894 0.5758,-1.13183 1.8292,-2.72034 1.879,0.33259 3.7628,-0.0447 1.8491,-0.48397 3.8298,0.52372 0.5237,1.24598 1.4073,1.78459 0.8489,0.43187 1.8045,0.829 0.9209,0.2904 1.8764,0.68751 0.9556,0.39713 1.5513,1.50165 0.5337,-0.17376 0.5709,-0.42196 0.144,-0.28295 0.7123,-0.35 0.4915,0.78433 0.8787,1.24848 0.3872,0.46413 0.7397,0.82155 0.4591,0.32265 0.8463,0.78681 0.494,0.42939 0.9507,1.10698 -0.1167,1.45449 -0.057,3.08769 0.024,1.52646 -1.0822,2.47708 0.278,0.85384 0.9531,0.75207 0.6404,-0.2085 0.9903,0.50386 0.4196,0.92578 0.2011,1.70516 4.6216,4.04324 8.8833,8.79388 4.227,4.64391 8.9553,8.6524 0.273,1.5637 1.0798,2.95365 0.8786,1.24848 1.864,2.46218 1.0921,1.17897 2.0774,2.39271 0.9854,1.2137 1.6507,2.53167 0.8041,1.74487 1.2856,3.94896 0.4468,2.09732 0.4319,4.22693 -0.015,2.12959 -0.5261,4.18474 -0.5461,1.9484 -1.6555,3.25398 -1.0127,2.69054 -3.1225,4.91199 -2.1445,2.11471 -3.6883,4.62408 -1.2162,1.34031 -2.7849,2.32322 -1.6034,0.87616 -3.2788,1.89381 -1.1094,1.30555 -2.7526,2.78487 -1.6778,1.3726 -3.4971,2.67318 -1.8194,1.30061 -3.7082,2.38775 -1.9236,0.98041 -3.594,1.28822 -3.3905,2.63842 -6.8454,4.35354 -3.4552,1.71512 -8.712,2.24629 z m -11.2612,-39.30079 q -0.2681,2.80223 -1.1021,5.31657 -0.7619,2.37283 -1.4891,4.85241 -0.7272,2.47957 -1.0301,5.17508 -0.2308,2.55403 0.6702,5.68391 2.7252,1.11938 5.7459,0.60807 3.0927,-0.65279 6.1183,-1.87395 2.9909,-1.32791 5.9123,-2.86928 2.9213,-1.54136 5.3761,-2.34059 -0.3127,-0.96056 0.541,-1.23854 4.3436,-1.88638 7.5256,-5.1652 3.1472,-3.38552 6.6146,-6.8753 0.1168,-1.45447 0.6578,-2.69302 0.5411,-1.23856 0.057,-3.08768 -0.8463,-0.78682 -1.2682,-1.35768 -0.3153,-0.6056 -0.7323,-1.88636 -4.0259,-2.93874 -7.5132,-6.76108 -3.5221,-3.92907 -7.5107,-7.11602 -0.04,0.60313 -0.5064,1.34528 -0.4665,0.74214 -1.4569,0.23826 0.027,1.17154 -0.4741,1.80696 -0.5361,0.52867 -1.39,0.80665 -0.747,0.24325 -1.7051,0.20107 -0.8513,-0.077 -1.6655,-0.40209 -2.7624,4.20459 -5.5944,8.19576 -2.7253,3.9564 -4.4975,8.66486 -0.4295,0.49393 -0.5709,0.42194 -0.1415,-0.0719 -0.7123,0.35 z" />
    <path
       inkscape:connector-curvature="0"
       id="path4583"
       style="font-style:normal;font-variant:normal;font-weight:normal;font-stretch:normal;font-size:77.5px;line-height:125%;font-family:'Permanent Marker';-inkscape-font-specification:'Permanent Marker';text-align:center;letter-spacing:0px;word-spacing:0px;text-anchor:middle;fill:#aa0000;fill-opacity:1;stroke:none;stroke-width:1.48305082px;stroke-linecap:butt;stroke-linejoin:miter;stroke-opacity:1"
       d="m 1121.8437,286.22652 q -0.4988,0.2805 -1.2038,-0.43435 -0.7396,-0.82156 -1.5512,-1.50165 l 1.1739,-0.38224 q -1.5115,-2.10476 -1.8168,-4.13013 -0.2333,-2.16682 -0.2905,-4.15496 -0.092,-2.09484 -0.3276,-3.90674 -0.1638,-1.95337 -1.5364,-3.63125 0.6379,0.14638 0.6777,-0.45669 0.1116,-0.74463 -0.06,-1.63318 -0.1,-1.03007 -0.5188,-1.95588 -0.3475,-1.06728 -0.6627,-1.6729 0.3102,-3.7603 -0.09,-7.52558 -0.2929,-3.80002 -0.7645,-7.42382 -0.5064,-3.73053 -0.8017,-7.17561 -0.2234,-3.58657 0.1191,-6.88521 1.4247,-0.69994 3.2341,-0.58082 1.8813,-0.0224 2.693,0.65775 2.4746,-3.63872 3.8546,-8.10145 1.38,-4.46274 2.8295,-8.71202 1.5215,-4.39075 3.9613,-8.13618 2.4399,-3.74543 7.1756,-5.87753 3.1523,0.98041 7.0491,2.07249 3.862,0.98538 6.8977,3.42025 1.0275,0.25565 1.9831,0.65278 1.0276,0.25565 2.0551,0.5113 l 0.5213,1.6009 q 1.9459,0.90099 3.532,2.50936 1.6579,1.46688 3.1001,3.3582 1.514,1.74984 2.9561,3.64116 1.442,1.89133 2.9933,3.39297 0,0.70985 0.1688,1.2435 0.2458,0.39215 0.5262,0.89105 0.3524,0.35741 0.6677,0.96303 0.2805,0.49889 0.5585,1.35271 1.4148,5.79558 -0.747,10.39485 -2.0899,4.45777 -6.0562,8.22803 -3.8944,3.62877 -8.6029,6.9324 -4.7431,3.19691 -8.4215,6.40125 0.139,0.42691 0.5659,0.2879 0.5336,-0.17373 0.5287,0.53613 3.8273,0.87864 5.9172,1.49666 2.1967,0.58328 3.9688,0.95062 1.8442,0.22585 3.8323,0.16876 2.0949,-0.0918 5.6467,-0.42197 3.5518,-0.33012 5.5399,-0.38721 2.0601,-0.19859 3.6585,-0.36488 1.5637,-0.27303 3.3409,-0.61555 1.7772,-0.34255 4.763,-0.9606 1.5563,0.79178 2.8246,2.14947 1.2684,1.35768 2.1098,2.85434 0.8414,1.49669 1.1145,3.06038 0.345,1.42221 -0.1242,2.51927 0.2458,0.39216 0.6727,0.25317 0.4988,-0.28049 1.0672,-0.34749 -0.5732,0.77689 -0.8637,1.69772 -0.2904,0.92085 -0.5808,1.8417 -0.2904,0.92084 -0.8289,1.80446 -0.4319,0.84885 -1.4645,1.30306 -3.3557,2.74517 -9.7842,3.30368 -6.4285,0.55849 -16.8606,0.0596 -5.1453,-0.21343 -8.4787,-0.66267 -3.3334,-0.44925 -5.8849,-1.035 -2.5864,-0.69248 -4.8872,-1.59594 -2.3356,-1.0102 -5.3787,-2.38026 -0.2853,0.21099 -0.2879,0.5659 0.1043,0.32017 -0.1811,0.53115 0.8562,4.44288 0.551,7.49333 -0.1986,3.01568 -1.4297,6.4856 -1.8119,0.2358 -2.2437,1.08467 -0.3252,0.81411 -1.0053,1.62574 -0.9977,0.56096 -1.6357,0.41449 -0.6031,-0.0397 -1.1342,-0.22089 -0.5312,-0.1812 -1.1691,-0.32764 -0.6378,-0.14638 -1.7772,0.34252 -0.6328,-0.8563 -1.2311,-1.60588 -0.6329,-0.85629 -1.9856,-0.29783 0.01,-1.0648 -0.3077,-1.67042 -0.3501,-0.71234 -0.7372,-1.17651 -0.422,-0.57086 -0.8439,-1.14173 -0.3153,-0.60562 -0.2731,-1.56369 z m 19.7669,-60.38098 q -0.7272,2.47957 -1.8789,4.7432 -1.1864,2.15692 -2.3033,4.52728 -1.045,2.22889 -1.6307,4.78045 -0.6205,2.44483 -0.2159,5.50022 4.3088,-1.99309 8.5928,-5.51266 4.2493,-3.62631 8.0344,-6.86541 -1.8193,-3.77518 -4.8251,-5.39348 -3.0406,-1.72501 -5.7733,-1.7796 z" />
    <path
       inkscape:connector-curvature="0"
       id="path4585"
       style="font-style:normal;font-variant:normal;font-weight:normal;font-stretch:normal;font-size:77.5px;line-height:125%;font-family:'Permanent Marker';-inkscape-font-specification:'Permanent Marker';text-align:center;letter-spacing:0px;word-spacing:0px;text-anchor:middle;fill:#aa0000;fill-opacity:1;stroke:none;stroke-width:1.48305082px;stroke-linecap:butt;stroke-linejoin:miter;stroke-opacity:1"
       d="m 1186.4218,264.13851 1.0399,-1.51904 -0.623,-2.27604 q 0.5485,-7.37915 1.3775,-14.25939 0.9357,-6.91501 1.9806,-14.2197 0.3004,-2.34057 0.6007,-4.68115 0.407,-2.37533 0.6725,-4.82263 -0.2456,-0.39216 -0.3846,-0.81907 -0.1738,-0.53365 -0.1688,-1.24351 0.7992,-2.62105 1.0971,-4.60669 0.4044,-2.02039 0.6676,-4.11277 0.2655,-2.4473 0.6378,-4.92935 0.479,-2.51683 1.5265,-5.10064 l 0.3996,-1.31052 1.2088,-0.27548 q 0.3574,-0.35245 0.7495,-0.5982 0.4642,-0.38718 1.2113,-0.63043 l 2.0253,-0.3053 q 3.0008,-2.74765 4.6961,-6.60477 1.7671,-3.99858 3.1521,-9.1712 l 0.69,-2.23136 2.0552,0.5113 q 0.6379,0.14638 1.9162,0.0844 1.2782,-0.0619 2.6979,-0.0521 2.415,-0.19612 4.7929,-0.144 2.343,-0.0545 3.8993,0.73715 l 0.8463,0.7868 q 0.5958,1.10451 1.0153,2.03032 0.5261,0.89106 1.0524,1.78211 1.1565,2.10228 2.2065,4.23934 1.0151,2.03032 1.9906,4.66377 1.2286,1.96082 2.3853,4.06311 1.2286,1.96082 2.3505,3.95638 1.5414,2.92139 3.12,5.59455 1.5438,2.56645 3.4451,4.78042 1.0673,-0.34749 1.3155,-0.31024 1.1069,-0.95064 2.7799,-1.61334 l 1.3527,-0.55848 0.8439,1.14174 q 0.3177,0.25068 0.7422,0.46662 0.4243,0.21593 0.9556,0.39712 1.7423,-0.44923 2.6979,-0.0522 1.0276,0.25565 1.7349,0.61554 0.2831,0.144 0.7075,0.3599 0.3896,0.10915 0.6378,0.14638 l 2.1644,0.12161 -0.407,2.37533 q -0.4443,2.62355 -2.2041,5.55733 -1.653,2.89906 -4.1897,5.2595 0.4567,0.67759 0.6652,1.31795 0.3153,0.60562 0.8067,1.38995 1.1219,1.99557 2.0998,4.27411 1.05,2.13702 1.529,4.69602 -0.1638,3.12243 -0.9283,5.8502 -0.6925,2.5863 -2.1296,5.06093 -1.3651,2.33312 -3.4376,4.30636 -2.1072,1.86653 -4.7407,2.84197 -1.5984,0.16631 -2.4846,-0.0174 -0.7793,-0.21842 -1.452,-0.47158 -1.0622,-0.36236 -1.6654,-0.40207 l -1.5959,-0.18864 -0.095,-1.73993 q 0.042,-0.95806 -0.5932,-1.45943 -0.5287,-0.53613 -2.0502,-1.22115 -0.5311,-0.1812 -0.9556,-0.39715 -0.4591,-0.32265 -1.0251,-0.61057 l -2.9338,-1.75977 3.2093,-2.10727 q 2.9238,-1.8963 3.5742,-3.52452 0.6155,-1.73497 -0.71,-5.08076 -2.8419,0.33508 -4.4106,1.31796 -1.6034,0.87616 -3.172,1.85907 -2.2462,1.4396 -4.4206,2.73772 -2.209,1.19139 -4.9839,2.09486 -1.8144,0.59075 -3.9464,0.9308 l -1.2088,0.27547 -0.7025,-1.06975 q -0.069,-0.21346 -0.4592,-0.32268 -0.3176,-0.25068 -0.6007,-0.39463 -0.742,-0.46661 -1.8366,-1.29067 -1.0947,-0.82404 -1.1889,-2.56396 -1.1294,-0.93076 -1.6531,-2.17674 -0.149,0.99283 -0.1911,1.95089 0.03,0.8166 0.06,1.63318 l 0.024,1.52648 -1.318,0.66519 q -0.144,0.28296 -0.2184,0.77937 0.032,0.46166 0.2085,0.64037 l 0.8092,1.03501 -0.7546,1.30803 q -0.1091,0.38968 -0.3599,0.7074 -0.2507,0.3177 -0.3946,0.60066 0.1688,1.24352 0.089,2.44978 0.027,1.17154 -0.052,2.3778 0.022,1.88141 0.011,3.65607 0.095,1.73993 0.6155,3.34084 l 0.024,1.52647 q -0.2556,1.02756 -0.9704,1.73247 -0.6081,0.67016 -1.251,1.23359 -0.9283,0.77441 -1.2162,1.34032 l 0.1315,1.4917 -1.5314,0.7347 q -1.2832,0.77191 -1.8888,1.08714 -0.4989,0.28049 -1.246,0.52374 l -1.4222,0.34498 q -1.6978,-0.86374 -2.76,-1.2261 -0.9904,-0.50388 -2.2315,-0.69001 l -0.9183,-0.64534 q -0.7049,-0.71483 -1.0201,-1.32045 -0.35,-0.71234 -0.8067,-1.38994 -0.6652,-1.31797 -1.2659,-1.71261 z m 25.0115,-38.83432 q -0.7993,2.62108 -1.4223,5.42082 0.7124,-0.34998 1.3528,-0.55848 0.747,-0.24323 1.4594,-0.59323 3.666,-1.42968 6.7636,-2.79235 3.0976,-1.36265 6.5898,-3.32597 -2.1395,-3.67095 -4.5272,-7.37913 -2.3158,-3.84966 -4.8451,-7.62982 l -0.1862,1.24103 q -1.7299,3.7504 -3.1075,7.8582 -1.3774,4.1078 -2.0054,7.61742 z" />
    <path
       inkscape:connector-curvature="0"
       id="path4587"
       style="font-style:normal;font-variant:normal;font-weight:normal;font-stretch:normal;font-size:77.5px;line-height:125%;font-family:'Permanent Marker';-inkscape-font-specification:'Permanent Marker';text-align:center;letter-spacing:0px;word-spacing:0px;text-anchor:middle;fill:#aa0000;fill-opacity:1;stroke:none;stroke-width:1.48305082px;stroke-linecap:butt;stroke-linejoin:miter;stroke-opacity:1"
       d="m 686.70229,505.08972 q -1.5066,-2.81465 -2.33564,-6.08599 -0.82899,-3.27134 -1.80198,-6.25973 -0.93822,-2.88166 -2.4076,-5.94452 -1.39742,-3.20432 -2.69058,-6.08846 -1.18642,-2.91889 -1.98565,-5.37365 -0.72723,-2.59621 -0.53864,-4.19218 0.33259,-1.87891 1.33534,-3.14972 0.968,-1.37755 1.75978,-2.9338 1.45694,-0.23829 2.73273,0.0545 1.34776,0.1514 2.4076,0.86872 1.13181,0.57584 1.76474,1.43213 0.73965,0.82155 0.83895,1.85161 3.18943,0.7322 5.69383,2.98588 2.57638,2.11222 4.50743,5.1428 2.00303,2.88911 3.50468,6.41362 1.60838,3.48976 2.96857,6.94229 1.4669,3.41779 2.72282,6.55014 1.32792,2.99085 2.8395,5.09563 2.47209,-8.35956 3.97123,-14.6317 1.57113,-6.41363 3.31598,-12.29363 1.71011,-5.98673 4.13258,-12.32342 2.52919,-6.37143 6.88267,-14.75334 1.45698,-0.23829 2.30831,-0.16134 0.85134,0.077 1.70269,0.15388 0.85135,0.077 1.77468,0.0119 0.88859,-0.17124 2.31326,-0.87124 0.95063,1.10702 1.37258,1.67787 0.49393,0.4294 0.88113,0.89354 0.38721,0.46414 0.98538,1.21372 0.59819,0.74957 1.79454,2.24875 0.45918,0.32264 0.59569,1.1045 0.20851,0.64037 0.27549,1.20877 0.067,0.56838 0.17124,0.88857 0.211,0.28543 0.74711,-0.24325 0.16383,1.95339 -0.31025,3.76033 -0.5088,1.70019 0.25813,3.69327 -1.63068,4.78046 -3.83224,9.98285 -2.20156,5.20238 -4.26413,10.83169 -2.09731,5.52259 -3.84218,11.40257 -1.67288,5.73851 -2.17671,11.80465 -0.64037,0.20851 -0.85633,0.63293 -0.21593,0.42443 -0.39711,0.9556 -0.0744,0.49641 -0.25565,1.02758 -0.0744,0.4964 -0.71483,0.70488 0.89852,3.4848 -0.44177,7.3444 -1.26831,3.71813 -2.92137,6.61717 0.49147,0.78432 0.6652,1.31797 0.17375,0.53364 0.24075,1.10204 0.067,0.5684 0.16877,1.24351 0.17375,0.53363 0.55849,1.3527 -0.1265,2.87422 -1.17149,5.1031 -0.93821,2.19415 -2.47461,3.63871 -1.5364,1.44456 -3.52699,1.85658 -1.95587,0.51874 -4.04575,-0.0992 -0.88608,-0.18368 -1.66298,-0.757 -0.77687,-0.57337 -1.62576,-1.00525 -0.77687,-0.57335 -1.59098,-0.89849 -0.74214,-0.46663 -1.66546,-0.40209 -0.13407,-1.13678 -0.72973,-2.24129 -0.48899,-1.13925 -1.1219,-1.99558 -0.63293,-0.85629 -1.26833,-1.35767 -0.63541,-0.50136 -1.06233,-0.36237 -1.29562,-2.52921 -3.05046,-5.38108 -1.68283,-2.99335 -3.43766,-5.84523 -1.6481,-2.88662 -3.04798,-5.73601 -1.3999,-2.84938 -2.12714,-5.44563 -0.31022,-1.31548 -1.26336,-2.06755 -0.88115,-0.89352 -1.54634,-2.21149 z" />
    <path
       inkscape:connector-curvature="0"
       id="path4589"
       style="font-style:normal;font-variant:normal;font-weight:normal;font-stretch:normal;font-size:77.5px;line-height:125%;font-family:'Permanent Marker';-inkscape-font-specification:'Permanent Marker';text-align:center;letter-spacing:0px;word-spacing:0px;text-anchor:middle;fill:#aa0000;fill-opacity:1;stroke:none;stroke-width:1.48305082px;stroke-linecap:butt;stroke-linejoin:miter;stroke-opacity:1"
       d="m 759.9552,521.61001 q -1.13181,-0.57584 -1.94098,-1.61086 -0.70241,-1.06976 -2.33313,-1.3651 -0.7347,-1.53144 -1.82183,-3.42027 -1.01517,-2.03033 -2.13706,-4.02588 -1.04994,-2.13704 -1.95838,-4.20213 -0.83648,-2.20652 -1.10699,-4.12516 -0.0992,-1.03004 0.0497,-2.02287 0.25565,-1.02757 0.43931,-1.91366 0.25564,-1.02758 0.19112,-1.9509 0.0422,-0.95806 -0.44923,-1.7424 0.60561,-0.31526 0.5386,-0.88362 0.005,-0.70986 0.9283,-0.7744 -0.0174,-2.59127 0.17619,-4.89709 0.1936,-2.30583 0.52866,-4.53968 0.33508,-2.23386 0.67015,-4.46771 0.40704,-2.37533 0.46163,-5.10806 -2.37036,-1.11692 -3.84967,-2.76003 -1.40733,-1.78458 -2.49448,-3.67343 -1.08713,-1.88884 -1.96083,-3.84716 -0.90844,-2.06507 -2.24379,-3.99114 0.65525,-2.3381 2.08739,-4.10285 1.39741,-1.87147 3.28873,-3.31355 1.96327,-1.58356 4.38576,-2.84445 2.38774,-1.36762 5.0609,-2.94622 4.60171,-3.26887 8.37938,-5.44318 3.74294,-2.28102 7.41142,-4.06564 3.63371,-1.89132 7.65712,-3.67345 3.98865,-1.88886 9.11905,-4.6216 0.21099,0.28541 0.42442,0.21593 0.32018,-0.10426 0.74711,-0.24325 0.56342,0.64284 1.41725,0.36484 -0.10426,-0.32017 -0.28049,-0.49887 -0.10427,-0.32017 -0.17376,-0.53364 0.21347,-0.0696 0.56841,-0.067 0.46166,-0.0322 0.70986,0.005 0.35494,0.003 0.53365,-0.17376 0.144,-0.28295 -0.13644,-0.78186 2.01048,1.82431 4.52479,2.65827 2.47959,0.72723 5.28182,0.99528 0.4195,0.9258 0.45176,1.38747 0.13896,0.42691 0.17122,0.88859 -0.003,0.35494 0.17125,0.88858 0.13897,0.42691 0.63045,1.21123 -0.76942,3.43766 -2.48949,5.76831 -1.61333,2.29589 -3.79007,3.94896 -2.17675,1.65306 -4.81269,2.98346 -2.52921,1.29562 -5.23711,2.76748 -2.63596,1.3304 -5.23962,3.12245 -2.60366,1.79206 -4.82262,4.40319 -0.95807,-0.0423 -1.67042,0.30776 -0.64037,0.2085 -1.31797,0.66521 -0.67759,0.45671 -1.56865,0.98289 -0.78433,0.49145 -2.13458,0.69499 -0.61056,1.02509 -1.68032,1.72752 -0.96305,0.66767 -2.0328,1.3701 0.91588,1.00026 1.19138,2.20902 0.38224,1.17401 0.98043,1.92359 4.62159,-1.03257 9.92571,-3.23168 5.26939,-2.30584 10.42957,-4.222 0.28051,0.49888 0.13644,0.78185 -0.144,0.28295 0.0299,0.81659 1.16904,0.32763 2.33561,1.0102 1.16656,0.68256 2.33313,1.36512 1.23855,0.54107 2.4076,0.86871 1.1343,0.2209 2.3803,-0.30282 0.88112,0.89353 1.47682,1.99805 0.5957,1.10451 0.47904,2.55899 -1.68282,2.08244 -3.22417,4.23687 -1.5761,2.04771 -3.43514,3.95146 -1.75234,1.86898 -4.07056,3.45007 -2.31823,1.58107 -5.34138,2.4473 -0.53364,0.17376 -0.96055,0.31275 -0.3202,0.10426 -0.99283,-0.14891 -0.89352,0.88113 -2.74266,1.36513 -1.77715,0.34254 -2.7774,1.2584 -1.66795,-0.0471 -3.69578,0.61309 -1.92112,0.62549 -3.58906,0.57833 -1.01763,3.40041 -1.71755,7.05152 -0.73467,3.54438 -0.90344,7.37667 4.58436,-0.78435 7.43127,-1.8293 2.84689,-1.04498 5.30414,-2.19911 2.45723,-1.15419 5.02117,-2.34308 2.67069,-1.22367 6.65439,-2.40266 2.25121,-2.14947 5.52752,-3.68834 3.34827,-1.68037 6.02394,-3.6139 1.17152,-0.0273 2.23136,0.69001 1.02508,0.61058 1.9782,1.36264 1.02508,0.61057 1.98067,1.0077 0.9556,0.39712 2.06012,-0.19857 0.70739,0.3599 1.05735,1.07225 0.45672,0.67761 0.77193,1.28323 0.42195,0.57085 0.88113,0.89352 0.42442,0.21593 1.24351,-0.16879 -0.67263,4.82263 -2.50437,7.89792 -1.72503,3.04052 -4.50988,5.36372 -2.71287,2.18172 -6.4533,4.10782 -3.66848,1.78461 -8.19327,4.20216 -1.1045,0.59568 -2.02781,0.66022 -0.85137,-0.077 -1.70519,0.20106 -2.81464,1.50661 -6.80329,3.39547 -3.88192,1.85411 -8.07907,3.10258 -4.19717,1.24847 -8.3521,1.53892 -4.15497,0.2904 -7.51568,-1.33037 z" />
    <path
       inkscape:connector-curvature="0"
       id="path4591"
       style="font-style:normal;font-variant:normal;font-weight:normal;font-stretch:normal;font-size:77.5px;line-height:125%;font-family:'Permanent Marker';-inkscape-font-specification:'Permanent Marker';text-align:center;letter-spacing:0px;word-spacing:0px;text-anchor:middle;fill:#aa0000;fill-opacity:1;stroke:none;stroke-width:1.48305082px;stroke-linecap:butt;stroke-linejoin:miter;stroke-opacity:1"
       d="m 822.71879,495.03693 q -0.49889,0.28048 -1.20379,-0.43436 -0.73966,-0.82155 -1.55129,-1.50164 l 1.17401,-0.38224 q -1.51158,-2.10477 -1.8169,-4.13013 -0.2333,-2.16683 -0.29039,-4.15496 -0.0918,-2.09485 -0.32766,-3.90675 -0.16381,-1.95338 -1.53641,-3.63122 0.63789,0.14637 0.67761,-0.4567 0.11167,-0.74464 -0.0596,-1.6332 -0.0994,-1.03005 -0.51874,-1.95588 -0.34749,-1.06727 -0.66273,-1.67289 0.31025,-3.7603 -0.0895,-7.52557 -0.2929,-3.80004 -0.76449,-7.42384 -0.50636,-3.73053 -0.80174,-7.17559 -0.22339,-3.58657 0.11908,-6.88523 1.4247,-0.69994 3.23411,-0.58081 1.88142,-0.0224 2.69302,0.65774 2.47461,-3.63872 3.85462,-8.10144 1.38001,-4.46274 2.82951,-8.71204 1.52147,-4.39073 3.96134,-8.13615 2.43983,-3.74544 7.17557,-5.87754 3.15222,0.9804 7.04904,2.07248 3.86208,0.98537 6.89764,3.42025 1.02758,0.25565 1.98317,0.65278 1.02757,0.25565 2.05513,0.5113 l 0.52124,1.60091 q 1.94594,0.90099 3.53197,2.50934 1.65802,1.46691 3.10012,3.35822 1.51406,1.74984 2.95612,3.64116 1.44209,1.89132 2.99337,3.39295 -0.005,0.70986 0.16878,1.24351 0.24575,0.39215 0.52621,0.89105 0.35246,0.35743 0.66767,0.96305 0.2805,0.49888 0.55849,1.3527 1.4148,5.7956 -0.74706,10.39484 -2.08987,4.45778 -6.05618,8.22802 -3.89432,3.62879 -8.60277,6.93242 -4.74318,3.1969 -8.42159,6.40123 0.13896,0.42693 0.56593,0.28794 0.53362,-0.17375 0.52868,0.53611 3.82731,0.87863 5.91721,1.49666 2.1966,0.58327 3.96879,0.95061 1.84419,0.22587 3.8323,0.16876 2.09484,-0.0918 5.64667,-0.42195 3.55183,-0.33014 5.53995,-0.38724 2.0601,-0.19857 3.65853,-0.36487 1.5637,-0.27303 3.34085,-0.61556 1.77716,-0.34253 4.76307,-0.96057 1.55623,0.79177 2.82458,2.14945 1.26832,1.35767 2.10976,2.85435 0.84142,1.49668 1.11447,3.06036 0.34498,1.42222 -0.12413,2.51929 0.24574,0.39215 0.67263,0.25316 0.49889,-0.28049 1.06728,-0.34749 -0.57335,0.77689 -0.86375,1.69773 -0.29041,0.92084 -0.58079,1.84168 -0.2904,0.92085 -0.82901,1.80446 -0.43187,0.84886 -1.4644,1.30308 -3.35572,2.74516 -9.78424,3.30368 -6.42852,0.55849 -16.86058,0.0596 -5.14529,-0.21344 -8.47869,-0.66269 -3.33341,-0.44924 -5.88496,-1.03499 -2.5863,-0.6925 -4.88717,-1.59596 -2.33561,-1.01018 -5.3786,-2.38025 -0.28544,0.21099 -0.28795,0.5659 0.10427,0.32017 -0.18118,0.53117 0.85634,4.44287 0.55105,7.49331 -0.19856,3.01569 -1.42963,6.48561 -1.8119,0.2358 -2.24377,1.08467 -0.32516,0.81412 -1.00525,1.62574 -0.99777,0.56095 -1.63566,0.41449 -0.60315,-0.0397 -1.13432,-0.2209 -0.53115,-0.1812 -1.16904,-0.32763 -0.63789,-0.14638 -1.77715,0.34252 -0.63293,-0.8563 -1.2311,-1.60588 -0.63292,-0.85629 -1.98565,-0.29784 0.008,-1.0648 -0.30777,-1.67042 -0.35,-0.71232 -0.73718,-1.17649 -0.42196,-0.57085 -0.8439,-1.14174 -0.31524,-0.60562 -0.27305,-1.56369 z m 19.76686,-60.38099 q -0.72723,2.47957 -1.8789,4.74322 -1.18641,2.1569 -2.30333,4.52725 -1.04493,2.22891 -1.63068,4.78046 -0.62051,2.44482 -0.21592,5.50023 4.30883,-1.9931 8.59284,-5.51268 4.24927,-3.62629 8.0344,-6.86538 -1.81938,-3.7752 -4.82515,-5.39349 -3.04051,-1.72501 -5.77326,-1.77961 z" />
    <path
       inkscape:connector-curvature="0"
       id="path4593"
       style="font-style:normal;font-variant:normal;font-weight:normal;font-stretch:normal;font-size:77.5px;line-height:125%;font-family:'Permanent Marker';-inkscape-font-specification:'Permanent Marker';text-align:center;letter-spacing:0px;word-spacing:0px;text-anchor:middle;fill:#aa0000;fill-opacity:1;stroke:none;stroke-width:1.48305082px;stroke-linecap:butt;stroke-linejoin:miter;stroke-opacity:1"
       d="m 879.19522,433.56372 q -0.20106,-1.70518 -0.40705,-2.70048 -0.24075,-1.10204 -1.47684,-1.99805 -0.12903,-1.84666 -0.22837,-2.8767 0.008,-1.06479 -0.76198,-2.70296 0.0571,-3.08767 1.35269,-5.63427 1.40235,-2.58134 3.33339,-4.62654 1.89629,-2.15195 4.17977,-3.83977 2.24872,-1.79452 4.28152,-3.16462 -0.13895,-0.42693 -0.56591,-0.28792 -0.42692,0.13896 -0.3872,-0.46415 5.41583,-2.94373 10.51893,-6.84802 5.2098,-3.93904 10.77207,-7.52065 5.56228,-3.58163 11.86173,-5.98676 6.26468,-2.51187 13.96898,-2.77747 0.84391,1.14173 1.97324,2.07251 1.12934,0.93076 2.25867,1.86152 1.20132,0.78928 2.18917,1.64809 0.98786,0.85879 1.47684,1.99804 1.66297,0.75701 2.8618,1.90124 1.27082,1.00275 1.46693,3.41778 -0.89602,1.23608 -1.89878,2.50689 -1.00273,1.27081 -2.14697,2.46965 -5.185,0.38971 -9.88353,2.27359 -4.69851,1.88389 -8.40172,3.56179 -1.59101,-0.89851 -3.15719,-0.27054 -1.60092,0.52123 -3.24155,1.64562 -1.56866,0.9829 -3.10257,2.07252 -1.56864,0.98289 -3.13233,1.25594 -0.82652,1.4495 -2.60863,2.50192 -1.81686,0.94565 -3.88193,1.85408 0.067,0.56841 0.4567,0.67762 0.38967,0.10915 0.38473,0.81906 1.05984,0.71732 2.47957,0.72723 1.385,-0.0969 2.76998,-0.1936 1.49172,-0.13154 2.76749,0.16133 1.24103,0.18615 1.97819,1.36264 1.95589,-0.51874 3.65608,-0.0103 1.66546,0.40207 3.043,1.37007 1.37753,0.968 2.29094,2.32319 0.87865,1.24847 1.15417,2.45723 0.77439,0.92829 1.13182,0.57584 0.46414,-0.38721 1.34775,0.15139 0.94815,1.46193 3.03308,2.78982 2.15692,1.18642 3.67095,2.93625 1.25594,3.13236 2.19666,5.65909 1.04743,2.49199 0.77938,5.29421 -0.28542,5.28677 -2.48451,10.13424 -2.19907,4.84745 -5.63671,9.15381 -3.36565,4.16492 -7.47344,7.86318 -4.14252,3.59155 -8.38683,6.50797 -0.46166,0.0322 -1.06727,0.3475 -0.4989,0.28048 -0.42195,-0.57087 -0.68257,1.16656 -1.89382,1.79702 -1.1045,0.5957 -2.63343,0.97547 -1.38748,0.45174 -2.91642,0.83148 -1.42222,0.34498 -2.74018,1.01022 -1.1318,-0.57583 -2.15691,-1.18639 -0.91836,-0.64533 -1.72751,-1.68036 -0.5684,0.067 -0.74213,-0.46661 -0.10174,-0.67515 -0.63542,-0.50139 -0.13896,-0.42691 -0.10174,-0.67513 0.0373,-0.24819 0.0744,-0.49639 0.32268,-0.45918 0.18118,-0.53117 -0.0696,-0.21344 -0.42443,-0.21593 -0.28293,-0.144 -0.67263,-0.25317 -0.28296,-0.144 -0.28051,-0.49888 0.22092,-1.1343 -0.40954,-2.34555 -0.55849,-1.3527 -1.11693,-2.70543 -0.5585,-1.35271 -0.62052,-2.63096 -0.0969,-1.385 1.11938,-2.72532 4.51487,-0.9978 8.07909,-3.10259 3.67093,-2.13953 6.59977,-4.74571 3.03553,-2.64091 5.57467,-5.3563 2.6111,-2.85684 5.11301,-5.32402 -0.0273,-1.17153 0.36981,-2.1271 0.50385,-0.99035 1.04245,-1.87397 0.50387,-0.99034 0.90099,-1.94592 0.36238,-1.06233 0.30031,-2.34059 -0.0322,-0.46167 -0.20849,-0.64037 -0.17624,-0.17869 -0.42443,-0.21594 -0.28296,-0.14401 -0.5659,-0.2879 -0.28296,-0.14401 -0.42196,-0.57088 -0.35494,-0.003 -0.70986,-0.005 -0.24822,-0.0373 -0.46167,0.0322 -3.22667,-0.48399 -6.63454,-0.43682 -3.40785,0.0471 -5.92466,-0.43187 -1.00274,1.27082 -2.42248,1.26089 -1.41974,-0.0103 -3.37311,0.15391 -4.55208,1.246 -8.81625,1.92609 -4.15743,0.64535 -8.41416,0.26066 -0.42196,-0.57088 -0.88114,-0.89353 -0.49393,-0.42941 -1.59843,0.16629 -1.09459,-0.82404 -2.2264,-1.39989 -1.05985,-0.71728 -2.08246,-1.68281 z" />
    <path
       inkscape:connector-curvature="0"
       id="path4595"
       style="font-style:normal;font-variant:normal;font-weight:normal;font-stretch:normal;font-size:77.5px;line-height:125%;font-family:'Permanent Marker';-inkscape-font-specification:'Permanent Marker';text-align:center;letter-spacing:0px;word-spacing:0px;text-anchor:middle;fill:#aa0000;fill-opacity:1;stroke:none;stroke-width:1.48305082px;stroke-linecap:butt;stroke-linejoin:miter;stroke-opacity:1"
       d="m 958.6806,462.33788 q -1.80693,-0.47407 -3.14725,-1.69028 -1.44704,-1.18146 -2.53666,-2.71535 -1.19636,-1.49915 -2.10729,-3.20929 -1.0524,-1.7821 -2.03528,-3.35076 -0.48649,-1.4942 -0.0545,-2.34307 0.39713,-0.95557 0.93575,-1.83919 2.5267,-0.94073 4.45029,-1.92113 1.92359,-0.98041 3.74044,-1.92608 1.81688,-0.94567 3.66848,-1.78461 1.81686,-0.94567 4.05814,-1.67541 0.52371,-3.82981 0.9382,-7.26993 0.37974,-3.54685 0.757,-6.73879 -0.22836,-2.87668 0.003,-5.43072 0.3028,-2.69551 0.60313,-5.03609 0.26557,-2.4473 0.35243,-4.71838 0.0521,-2.37781 -0.49892,-4.79533 0.0645,-4.15249 0.0174,-7.56034 0.0248,-3.54935 -0.86628,-8.09894 -3.84716,1.96083 -6.09341,3.40044 -2.28102,1.33286 -3.17454,2.214 -2.16934,0.58823 -3.6933,0.25814 -1.41725,-0.36484 -2.51184,-1.18889 -1.09459,-0.82402 -2.07998,-2.03775 -0.98536,-1.21373 -2.21896,-2.46468 0.11419,-1.09954 -0.69,-2.84442 -0.83896,-1.85162 -2.18423,-2.35795 0.78432,-0.49145 0.829,-1.80446 0.0103,-1.41971 -0.51873,-1.95587 1.64064,-1.12436 3.63371,-1.89134 1.95835,-0.87368 3.84471,-1.60589 1.95832,-0.8737 3.70321,-1.67787 1.71013,-0.91093 2.71288,-2.18174 5.48036,-2.02042 11.38765,-4.17982 6.01401,-2.19415 11.03271,-4.1823 2.1296,0.0148 4.58435,-0.78434 2.56148,-0.83398 5.12047,-1.31303 2.66574,-0.5138 4.93432,-0.0719 2.37534,0.40705 3.99115,2.83201 1.67045,-0.30777 2.62605,0.0893 1.0622,0.36237 1.5885,1.25342 0.4914,0.78433 0.767,1.99309 0.3474,1.06728 0.6949,2.13455 -1.2906,1.83675 -3.6808,3.55929 -2.31829,1.58107 -5.23962,3.12243 -2.95611,1.43463 -6.30194,2.76008 -3.2738,1.18396 -6.4409,2.33315 0.61308,3.69578 0.78932,8.95029 0.24822,5.11302 0.35497,10.15406 0.0719,4.93434 0.18619,8.91057 0.18616,3.83477 0.6404,4.86732 -0.26807,2.80223 -0.45918,4.75313 -0.0844,1.91615 -0.23826,3.61884 -0.0472,1.66794 -0.20103,3.37062 -0.0819,1.5612 -0.34501,3.65357 l 7.25752,-2.36294 q 0.5957,1.10451 1.48179,1.28819 0.8861,0.18367 1.84417,0.22586 0.95807,0.0422 1.77218,0.36733 0.88611,0.18368 1.2336,1.25096 2.2016,-0.12666 3.0827,0.76695 0.8811,0.89354 0.978,2.27852 0.1688,1.24349 -0.2681,2.80225 -0.3302,1.52396 -0.7645,2.72777 -1.03005,0.0992 -1.64059,1.12437 -0.64536,0.91836 -1.11444,2.01543 -3.23413,0.58082 -6.11828,1.87395 -2.88415,1.29316 -5.3761,2.34059 -0.49889,0.28051 -0.21844,0.77938 0.24576,0.39214 -0.005,0.70986 -3.65608,0.0103 -7.10861,1.37012 -3.34579,1.32542 -6.69655,3.36072 -3.27879,1.89381 -6.73631,3.96385 -3.42273,2.17678 -7.23019,3.53448 z" />
    <path
       inkscape:connector-curvature="0"
       id="path4597"
       style="font-style:normal;font-variant:normal;font-weight:normal;font-stretch:normal;font-size:77.5px;line-height:125%;font-family:'Permanent Marker';-inkscape-font-specification:'Permanent Marker';text-align:center;letter-spacing:0px;word-spacing:0px;text-anchor:middle;fill:#aa0000;fill-opacity:1;stroke:none;stroke-width:1.48305082px;stroke-linecap:butt;stroke-linejoin:miter;stroke-opacity:1"
       d="m 1036.5276,436.04769 q -4.4875,2.16933 -8.6773,2.35302 -4.1896,0.1837 -8.0145,-1.04988 -3.7181,-1.26831 -6.9671,-3.63371 -3.1423,-2.40013 -5.6765,-5.47041 -3.3235,-6.94479 -3.7405,-13.30132 -0.4517,-6.46326 0.7967,-12.41771 1.2485,-5.95445 3.4525,-11.51179 2.3108,-5.59207 4.4056,-10.7597 0.8514,0.077 1.174,-0.38224 0.4295,-0.49393 0.5759,-1.13182 0.2532,-0.67264 0.5062,-1.34529 0.3599,-0.70739 0.9309,-1.12933 0.1141,-1.09956 0.546,-1.94841 0.5385,-0.88362 1.1119,-1.66051 0.6454,-0.91836 1.0773,-1.76721 0.5385,-0.88362 0.7595,-2.01791 0.9978,-0.56095 1.5711,-1.33785 0.6801,-0.81163 1.1119,-1.6605 0.5387,-0.8836 1.112,-1.6605 0.5734,-0.77688 1.5364,-1.44454 l -0.4518,-1.38748 q 2.0006,-1.83175 2.6508,-3.45998 0.6504,-1.62824 1.4843,-4.14254 1.1392,-0.489 1.7796,-0.6975 0.7472,-0.24324 2.1718,-0.94318 0.3699,-2.12714 0.9457,-3.25894 0.5758,-1.13181 1.8293,-2.72034 1.8789,0.3326 3.7627,-0.0447 1.8492,-0.48399 3.8299,0.5237 0.5237,1.24597 1.4073,1.78459 0.8488,0.43188 1.8045,0.82899 0.9207,0.2904 1.8763,0.68753 0.9557,0.39711 1.5514,1.50163 0.5336,-0.17375 0.5708,-0.42194 0.1441,-0.28297 0.7124,-0.35 0.4914,0.78434 0.8786,1.24848 0.3872,0.46414 0.7397,0.82156 0.4591,0.32267 0.8464,0.7868 0.4939,0.42939 0.9506,1.10699 -0.1167,1.45449 -0.057,3.08767 0.024,1.52648 -1.0821,2.4771 0.2779,0.85382 0.953,0.75207 0.6404,-0.2085 0.9904,0.50384 0.4195,0.92579 0.2011,1.70518 4.6215,4.04326 8.8833,8.79388 4.2269,4.64391 8.9552,8.6524 0.2731,1.56369 1.0798,2.95363 0.8786,1.24848 1.864,2.4622 1.0921,1.17897 2.0775,2.39269 0.9853,1.21372 1.6506,2.5317 0.8041,1.74488 1.2857,3.94893 0.4468,2.09733 0.4319,4.22694 -0.015,2.1296 -0.5262,4.18473 -0.546,1.94842 -1.6555,3.25399 -1.0127,2.69056 -3.1224,4.91199 -2.1445,2.11472 -3.6883,4.62408 -1.2162,1.34032 -2.7849,2.32321 -1.6034,0.87617 -3.2788,1.89382 -1.1095,1.30556 -2.7526,2.78486 -1.6779,1.3726 -3.4972,2.67319 -1.8193,1.30061 -3.7082,2.38776 -1.9236,0.98041 -3.5939,1.28822 -3.3906,2.63843 -6.8456,4.35355 -3.4549,1.71511 -8.712,2.24629 z m -11.2612,-39.30078 q -0.2681,2.80223 -1.102,5.31655 -0.762,2.37285 -1.4892,4.85241 -0.7273,2.47959 -1.03,5.17509 -0.2309,2.55405 0.6701,5.6839 2.7253,1.1194 5.746,0.60809 3.0927,-0.6528 6.1182,-1.87395 2.9909,-1.32789 5.9123,-2.86927 2.9214,-1.54137 5.3761,-2.3406 -0.3128,-0.96056 0.5411,-1.23854 4.3436,-1.88637 7.5255,-5.16517 3.1473,-3.38554 6.6147,-6.87531 0.1168,-1.45449 0.6577,-2.69304 0.5411,-1.23854 0.058,-3.08767 -0.8464,-0.78683 -1.2683,-1.35768 -0.3153,-0.60562 -0.7323,-1.88636 -4.0259,-2.93873 -7.5132,-6.76107 -3.522,-3.92909 -7.5107,-7.11602 -0.04,0.60312 -0.5063,1.34526 -0.4667,0.74213 -1.457,0.23828 0.027,1.17153 -0.4741,1.80693 -0.5361,0.52868 -1.3899,0.80666 -0.747,0.24325 -1.7052,0.20107 -0.8513,-0.077 -1.6655,-0.40208 -2.7624,4.20461 -5.5945,8.19575 -2.7253,3.9564 -4.4974,8.66488 -0.4294,0.49392 -0.5709,0.42194 -0.1414,-0.0719 -0.7123,0.35 z" />
    <path
       inkscape:connector-curvature="0"
       id="path4599"
       style="font-style:normal;font-variant:normal;font-weight:normal;font-stretch:normal;font-size:77.5px;line-height:125%;font-family:'Permanent Marker';-inkscape-font-specification:'Permanent Marker';text-align:center;letter-spacing:0px;word-spacing:0px;text-anchor:middle;fill:#aa0000;fill-opacity:1;stroke:none;stroke-width:1.48305082px;stroke-linecap:butt;stroke-linejoin:miter;stroke-opacity:1"
       d="m 1108.0454,401.19446 q -0.7893,1.20129 -0.5511,2.65827 0.2037,1.35023 0.3004,2.73522 0.097,1.38499 -0.4443,2.62353 -0.469,1.09707 -2.5317,1.65058 -0.2531,0.67264 -0.01,0.70986 0.3549,0.003 0.8464,0.78681 -1.5637,0.27302 -2.0651,0.90844 -0.5013,0.63541 -1.3924,1.16162 -2.698,0.0521 -5.0312,-1.313 -2.2611,-1.5066 -4.3063,-3.43764 -1.9384,-1.96578 -3.6983,-4.10778 -1.653,-2.17674 -3.2043,-3.67838 -0.139,-0.42693 0.3227,-0.45918 0.3201,-0.10426 0.6403,-0.2085 -0.8811,-0.89354 -1.5115,-2.10478 -0.772,-1.28322 -1.7971,-1.8938 0.9407,-7.62486 2.1345,-15.92237 1.1592,-8.40426 2.2834,-16.91521 1.1963,-8.65245 2.286,-17.27015 1.1616,-8.75915 2.1071,-17.09389 3.3359,0.0943 6.5974,0.68502 3.3334,0.44924 6.3069,1.60586 2.9735,1.15663 5.4084,3.19686 2.5068,1.89878 4.0829,4.92688 -0.01,0.70985 -0.3946,0.60066 -0.3897,-0.10915 -0.4641,0.38718 0.7421,0.46665 0.8463,0.78683 0.1763,0.17869 0.1738,0.53362 -0.037,0.24822 0.1018,0.67514 0.1389,0.42691 0.9159,1.00027 -0.5684,0.067 -0.6777,0.45668 -0.144,0.28297 -0.747,0.24325 1.0201,1.32045 1.0846,2.24377 0.064,0.92333 -0.1191,1.80944 -0.2184,0.77936 -0.2606,1.73742 0.03,0.8166 0.9084,2.06508 -0.4269,0.13896 -0.5708,0.42194 -0.072,0.14148 -0.1092,0.38969 -0.037,0.2482 -0.1811,0.53116 -0.072,0.14148 -0.5337,0.17374 1.2236,2.67069 2.0551,5.58709 0.7968,2.80968 1.6631,5.83284 0.8315,2.9164 1.9459,5.97677 1.1144,3.06035 2.9387,6.12569 3.7206,-4.16242 5.1056,-9.33501 1.4917,-5.20737 1.3899,-10.95828 0.01,-5.78566 -1.0872,-12.04043 -0.9853,-6.28954 -2.0403,-12.7925 0.7918,-1.55625 0.8762,-3.4724 0.1912,-1.95088 0.027,-3.90426 -0.056,-1.98814 -0.2209,-3.94151 -0.092,-2.09486 0.2755,-3.86704 1.9906,-0.41202 3.5841,0.13154 1.6654,0.40211 3.2217,1.19387 1.5215,0.68504 3.115,1.2286 1.5934,0.54356 3.6188,0.23827 2.1892,1.64808 4.1301,3.25892 1.9063,1.50412 3.1324,3.81988 -0.2928,1.27577 -0.1961,2.66074 0.097,1.385 0.087,2.80474 0.096,1.38497 -0.1961,2.66075 -0.2928,1.27578 -1.2236,2.40512 0.7223,3.3061 0.9853,6.28952 0.2631,2.98343 0.5983,5.82538 0.3351,2.84195 0.8464,5.8626 0.5112,3.02066 1.73,6.4012 0.047,3.40787 -0.05,7.09868 -0.1315,3.58409 0.2383,6.53277 -1.5066,2.26117 -1.9162,4.9914 -0.4094,2.73026 -0.9257,5.49528 -0.3946,0.60067 -0.5708,0.42195 -0.2111,-0.28542 -1.0996,-0.1142 0.4195,0.9258 -0.011,1.41972 -0.3573,0.35247 0.5933,1.45944 -1.5364,1.44457 -2.4721,3.28376 -0.9357,1.83921 -2.2612,3.5692 -1.2186,1.69525 -3.321,2.85189 -2.0303,1.01516 -5.9692,0.88115 -6.4807,-2.1395 -12.2763,-5.80051 -5.7956,-3.66101 -10.4744,-9.69238 -0.963,0.66769 -1.1491,1.9087 -0.1862,1.24103 -0.2309,2.55404 -0.045,1.313 -0.1588,2.41255 -0.1141,1.09955 -0.968,1.37755 0.099,1.03004 -0.2631,2.09238 -0.2904,0.92084 -0.546,1.94841 -0.2904,0.92083 -0.2978,1.98563 0.099,1.03006 1.0151,2.03033 z" />
    <path
       inkscape:connector-curvature="0"
       id="path4601"
       style="font-style:normal;font-variant:normal;font-weight:normal;font-stretch:normal;font-size:77.5px;line-height:125%;font-family:'Permanent Marker';-inkscape-font-specification:'Permanent Marker';text-align:center;letter-spacing:0px;word-spacing:0px;text-anchor:middle;fill:#aa0000;fill-opacity:1;stroke:none;stroke-width:1.48305082px;stroke-linecap:butt;stroke-linejoin:miter;stroke-opacity:1"
       d="m 1172.4667,310.10287 q 0.3128,0.96053 0.4443,2.45226 0.2384,1.45697 0.4766,2.91393 0.2383,1.45697 0.7272,2.59623 0.4543,1.03254 1.4123,1.07474 -0.079,6.28208 0.4245,10.36753 0.6106,4.05071 1.2237,7.74648 0.6851,3.55429 1.1889,7.63975 0.5039,4.08547 0.3898,10.2608 -0.061,3.79754 -1.318,5.74101 -1.2906,1.83672 -3.2118,2.46221 -1.9211,0.62548 -4.2964,0.21842 -2.3753,-0.40703 -4.5,-1.13179 -0.9804,-1.92357 -1.7052,-4.87474 -0.6527,-3.09264 -1.2684,-6.43348 -0.6155,-3.34084 -1.1268,-6.36148 -0.5461,-3.12739 -0.9929,-5.22473 0.6851,-1.52149 0.8687,-2.4076 0.1837,-0.8861 0.012,-1.77467 -0.064,-0.92331 -0.3748,-2.2388 -0.3102,-1.31551 -0.6478,-3.80252 -0.1688,-1.24351 -0.8737,-1.95832 -0.6329,-0.85632 -0.6974,-1.77963 0.074,-0.49641 0.4318,-0.84886 0.4642,-0.38719 0.3971,-0.95559 -0.024,-1.52647 -0.4815,-2.20406 -0.4914,-0.78433 -0.34,-2.13208 0.2556,-1.02758 0.412,-3.0852 0.2283,-2.19911 -0.6454,-4.15743 0.7173,-1.05985 1.2585,-2.29838 0.541,-1.23856 1.1516,-2.26365 0.6825,-1.16658 1.5761,-2.04771 1.0003,-0.91587 2.6011,-1.4371 1.2361,0.89602 2.0106,1.82428 0.7743,0.9283 1.4073,1.78461 0.7396,0.82155 1.6579,1.46688 0.9185,0.64533 2.4077,0.86872 z m 9.2063,64.1685 q 0.4914,0.78432 0.8413,1.49667 0.3501,0.71234 0.7348,1.53141 0.09,2.44979 -0.067,4.50742 -0.077,0.85134 -0.1143,1.09955 -0.037,0.2482 0,0.35493 0.035,0.10678 0.211,0.28544 0.1415,0.0719 0.3848,0.81905 l -0.1168,1.45451 q -0.2903,0.92083 -0.8984,1.591 -0.5014,0.6354 -1.1443,1.19882 -0.2506,0.31772 -0.6428,0.56343 -0.2507,0.3177 -0.3947,0.60066 l 0.097,1.38498 -1.4247,0.69996 q -1.5686,0.98289 -2.9562,1.43462 l -1.1739,0.38225 q -1.663,-0.75703 -2.6185,-1.15416 -0.9556,-0.39711 -2.09,-0.61801 -1.8342,-1.6456 -2.5341,-3.07029 -0.6653,-1.31797 -1.1244,-1.64064 l -1.9807,-1.0077 0.968,-1.37754 -1.941,-1.61085 q 0.968,-1.37754 1.4694,-2.01296 0.5013,-0.6354 0.7892,-1.20132 0.36,-0.70737 0.6504,-1.62823 0.2903,-0.92082 0.9084,-3.01072 l 0.5088,-1.70022 1.524,0.33013 q 0.6379,0.14638 2.1296,0.0148 1.5636,-0.27305 2.7004,-0.40706 1.8815,-0.0224 3.5866,-0.22341 1.7771,-0.34253 3.0158,0.19857 z" />
  </g>
  <g
     style="display:inline"
     inkscape:groupmode="layer"
     id="g4215"
     inkscape:label="cal-mon21"
     transform="translate(0,268.40547)"
     sodipodi:insensitive="true">
    <rect
       style="opacity:1;fill:#e6e6e6;fill-opacity:1;stroke:none;stroke-width:3.36652541;stroke-linecap:round;stroke-linejoin:round;stroke-miterlimit:4;stroke-dasharray:none;stroke-dashoffset:0;stroke-opacity:1"
       id="rect4217"
       width="750"
       height="635.5932"
       x="525"
       y="-23.702072"
       ry="0" />
    <path
       inkscape:connector-curvature="0"
       id="path4556"
       style="font-style:normal;font-variant:normal;font-weight:bold;font-stretch:normal;font-size:80px;line-height:125%;font-family:'Open Sans';-inkscape-font-specification:'Open Sans Bold';text-align:center;letter-spacing:0px;word-spacing:0px;text-anchor:middle;fill:#1a1a1a;fill-opacity:1;stroke:none;stroke-width:1.48305082px;stroke-linecap:butt;stroke-linejoin:miter;stroke-opacity:1"
       d="M 667.92577,122.15859 647.53383,55.710972 h -0.52139 q 1.10071,20.276079 1.10071,27.054081 V 122.15859 H 632.06606 V 37.462492 h 24.44718 l 20.04435,64.767608 h 0.3476 l 21.26092,-64.767608 h 24.44716 V 122.15859 H 705.87102 V 82.069873 q 0,-2.838648 0.058,-6.546275 0.11583,-3.707627 0.81105,-19.696766 h -0.52139 l -21.84024,66.331758 z" />
    <path
       inkscape:connector-curvature="0"
       id="path4558"
       style="font-style:normal;font-variant:normal;font-weight:bold;font-stretch:normal;font-size:80px;line-height:125%;font-family:'Open Sans';-inkscape-font-specification:'Open Sans Bold';text-align:center;letter-spacing:0px;word-spacing:0px;text-anchor:middle;fill:#1a1a1a;fill-opacity:1;stroke:none;stroke-width:1.48305082px;stroke-linecap:butt;stroke-linejoin:miter;stroke-opacity:1"
       d="m 820.86539,79.694678 q 0,21.029202 -10.4277,32.325882 -10.4277,11.29667 -29.89274,11.29667 -19.46505,0 -29.89275,-11.29667 -10.4277,-11.29668 -10.4277,-32.441738 0,-21.14507 10.4277,-32.26795 10.48563,-11.18081 30.00862,-11.18081 19.52297,0 29.8348,11.23875 10.36977,11.23874 10.36977,32.325866 z m -61.8131,0 q 0,14.193259 5.38766,21.376792 5.38764,7.18352 16.105,7.18352 21.49265,0 21.49265,-28.560312 0,-28.618236 -21.37678,-28.618236 -10.71737,0 -16.16294,7.24145 -5.44559,7.18353 -5.44559,21.376786 z" />
    <path
       inkscape:connector-curvature="0"
       id="path4560"
       style="font-style:normal;font-variant:normal;font-weight:bold;font-stretch:normal;font-size:80px;line-height:125%;font-family:'Open Sans';-inkscape-font-specification:'Open Sans Bold';text-align:center;letter-spacing:0px;word-spacing:0px;text-anchor:middle;fill:#1a1a1a;fill-opacity:1;stroke:none;stroke-width:1.48305082px;stroke-linecap:butt;stroke-linejoin:miter;stroke-opacity:1"
       d="m 913.67198,122.15859 h -22.8251 L 854.00231,58.086172 h -0.52138 q 1.1007,16.973973 1.1007,24.215428 v 39.85699 H 838.53455 V 37.462492 h 22.65128 l 36.78665,63.435188 h 0.4055 q -0.869,-16.51054 -0.869,-23.34647 V 37.462492 h 16.163 z" />
    <path
       inkscape:connector-curvature="0"
       id="path4562"
       style="font-style:normal;font-variant:normal;font-weight:bold;font-stretch:normal;font-size:80px;line-height:125%;font-family:'Open Sans';-inkscape-font-specification:'Open Sans Bold';text-align:center;letter-spacing:0px;word-spacing:0px;text-anchor:middle;fill:#1a1a1a;fill-opacity:1;stroke:none;stroke-width:1.48305082px;stroke-linecap:butt;stroke-linejoin:miter;stroke-opacity:1"
       d="m 1005.204,78.999498 q 0,20.913333 -11.93392,32.036212 -11.876,11.12288 -34.3535,11.12288 h -23.9837 V 37.462492 h 26.5906 q 20.7396,0 32.21,10.94908 11.47052,10.94909 11.47052,30.587926 z m -18.65402,0.463454 q 0,-27.28582 -24.0996,-27.28582 h -9.5587 v 55.150958 h 7.7049 q 25.9534,0 25.9534,-27.865138 z" />
    <path
       inkscape:connector-curvature="0"
       id="path4564"
       style="font-style:normal;font-variant:normal;font-weight:bold;font-stretch:normal;font-size:80px;line-height:125%;font-family:'Open Sans';-inkscape-font-specification:'Open Sans Bold';text-align:center;letter-spacing:0px;word-spacing:0px;text-anchor:middle;fill:#1a1a1a;fill-opacity:1;stroke:none;stroke-width:1.48305082px;stroke-linecap:butt;stroke-linejoin:miter;stroke-opacity:1"
       d="m 1074.6062,122.15859 -6.1408,-20.16022 h -30.8776 l -6.1408,20.16022 h -19.3491 l 29.8927,-85.043698 h 21.9561 l 30.0087,85.043698 z m -10.4278,-35.222456 q -8.516,-27.401682 -9.6166,-30.993432 -1.0428,-3.59177 -1.5063,-5.67731 -1.9116,7.41525 -10.949,36.670742 z" />
    <path
       inkscape:connector-curvature="0"
       id="path4566"
       style="font-style:normal;font-variant:normal;font-weight:bold;font-stretch:normal;font-size:80px;line-height:125%;font-family:'Open Sans';-inkscape-font-specification:'Open Sans Bold';text-align:center;letter-spacing:0px;word-spacing:0px;text-anchor:middle;fill:#1a1a1a;fill-opacity:1;stroke:none;stroke-width:1.48305082px;stroke-linecap:butt;stroke-linejoin:miter;stroke-opacity:1"
       d="m 1130.9157,72.337352 17.6692,-34.87486 h 19.3492 l -28.0968,51.732981 v 32.963117 h -17.8431 V 89.7748 l -28.0968,-52.312308 h 19.465 z" />
    <path
       inkscape:connector-curvature="0"
       id="path4551"
       style="font-style:normal;font-variant:normal;font-weight:bold;font-stretch:normal;font-size:320px;line-height:125%;font-family:'Open Sans';-inkscape-font-specification:'Open Sans Bold';letter-spacing:0px;word-spacing:0px;fill:#1a1a1a;fill-opacity:1;stroke:none;stroke-width:1.48305082px;stroke-linecap:butt;stroke-linejoin:miter;stroke-opacity:1"
       d="M 913.44018,529.62102 H 676.61553 v -49.82124 l 85.0437,-85.9706 q 37.77145,-38.69836 49.35778,-53.52887 11.58634,-15.06223 16.68432,-27.8072 5.09799,-12.74497 5.09799,-26.41684 0,-20.39195 -11.35461,-30.3562 -11.12288,-9.96424 -29.89274,-9.96424 -19.69677,0 -38.2349,9.03734 -18.53814,9.03734 -38.69836,25.72166 l -38.93008,-46.11361 q 25.02648,-21.31886 41.47907,-30.12447 16.4526,-8.80562 35.91764,-13.44015 19.46504,-4.86626 43.56462,-4.86626 31.74655,0 56.07786,11.58633 24.3313,11.58634 37.77146,32.44174 13.4401,20.8554 13.4401,47.7357 0,23.40439 -8.3421,44.02807 -8.1105,20.39195 -25.48996,41.94253 -17.14778,21.55058 -60.71239,61.40757 l -43.56462,41.01563 v 3.24417 h 147.60987 z" />
    <path
       inkscape:connector-curvature="0"
       id="path4553"
       style="font-style:normal;font-variant:normal;font-weight:bold;font-stretch:normal;font-size:320px;line-height:125%;font-family:'Open Sans';-inkscape-font-specification:'Open Sans Bold';letter-spacing:0px;word-spacing:0px;fill:#1a1a1a;fill-opacity:1;stroke:none;stroke-width:1.48305082px;stroke-linecap:butt;stroke-linejoin:miter;stroke-opacity:1"
       d="M 1124.3115,529.62102 H 1052.708 V 333.58024 l 0.6951,-32.21001 1.1587,-35.22246 q -17.843,17.84296 -24.7948,23.4044 l -38.93012,31.2831 -34.5272,-43.10116 109.14322,-86.89751 h 58.8586 z" />
  </g>
  <g
     inkscape:label="cal-sun20"
     id="g4195"
     inkscape:groupmode="layer"
     style="display:inline"
     transform="translate(0,268.40547)"
     sodipodi:insensitive="true">
    <rect
       ry="0"
       y="-23.702072"
       x="525"
       height="635.5932"
       width="750"
       id="rect4197"
       style="opacity:1;fill:#e6e6e6;fill-opacity:1;stroke:none;stroke-width:3.36652541;stroke-linecap:round;stroke-linejoin:round;stroke-miterlimit:4;stroke-dasharray:none;stroke-dashoffset:0;stroke-opacity:1" />
    <path
       inkscape:connector-curvature="0"
       id="path4538"
       style="font-style:normal;font-variant:normal;font-weight:bold;font-stretch:normal;font-size:80px;line-height:125%;font-family:'Open Sans';-inkscape-font-specification:'Open Sans Bold';text-align:center;letter-spacing:0px;word-spacing:0px;text-anchor:middle;fill:#1a1a1a;fill-opacity:1;stroke:none;stroke-width:1.48305082px;stroke-linecap:butt;stroke-linejoin:miter;stroke-opacity:1"
       d="m 710.38964,98.580406 q 0,11.470464 -8.28423,18.074684 -8.22629,6.60421 -22.94094,6.60421 -13.55601,0 -23.98371,-5.09799 v -16.68432 q 8.57389,3.82349 14.48291,5.38765 5.96697,1.56415 10.89116,1.56415 5.90903,0 9.03734,-2.25933 3.18624,-2.25934 3.18624,-6.720074 0,-2.49107 -1.39036,-4.40281 -1.39036,-1.969682 -4.11315,-3.765567 -2.66485,-1.795871 -10.94908,-5.735225 -7.76284,-3.649699 -11.64427,-7.009743 -3.88142,-3.36003 -6.19869,-7.820765 -2.31726,-4.46075 -2.31726,-10.427701 0,-11.238752 7.58905,-17.669171 7.64698,-6.430405 21.08713,-6.430405 6.6042,0 12.57117,1.564144 6.02489,1.564159 12.57117,4.402807 l -5.79317,13.961545 q -6.778,-2.780721 -11.23874,-3.881426 -4.40281,-1.100706 -8.68976,-1.100706 -5.09798,0 -7.82076,2.375195 -2.72279,2.37521 -2.72279,6.198693 0,2.375195 1.1007,4.17108 1.10069,1.737958 3.4759,3.417973 2.43312,1.622086 11.41254,5.909023 11.87599,5.677311 16.27879,11.412551 4.40281,5.677296 4.40281,13.961528 z" />
    <path
       inkscape:connector-curvature="0"
       id="path4540"
       style="font-style:normal;font-variant:normal;font-weight:bold;font-stretch:normal;font-size:80px;line-height:125%;font-family:'Open Sans';-inkscape-font-specification:'Open Sans Bold';text-align:center;letter-spacing:0px;word-spacing:0px;text-anchor:middle;fill:#1a1a1a;fill-opacity:1;stroke:none;stroke-width:1.48305082px;stroke-linecap:butt;stroke-linejoin:miter;stroke-opacity:1"
       d="m 794.68023,37.404561 v 54.803355 q 0,9.384944 -4.22901,16.452594 -4.17108,7.06768 -12.10773,10.83323 -7.93664,3.76556 -18.76986,3.76556 -16.33673,0 -25.37407,-8.34216 -9.03734,-8.40009 -9.03734,-22.940951 V 37.404561 h 17.90088 v 51.84885 q 0,9.790445 3.93936,14.367059 3.93935,4.57659 13.03462,4.57659 8.80562,0 12.74497,-4.57659 3.9973,-4.634534 3.9973,-14.482929 v -51.73298 z" />
    <path
       inkscape:connector-curvature="0"
       id="path4542"
       style="font-style:normal;font-variant:normal;font-weight:bold;font-stretch:normal;font-size:80px;line-height:125%;font-family:'Open Sans';-inkscape-font-specification:'Open Sans Bold';text-align:center;letter-spacing:0px;word-spacing:0px;text-anchor:middle;fill:#1a1a1a;fill-opacity:1;stroke:none;stroke-width:1.48305082px;stroke-linecap:butt;stroke-linejoin:miter;stroke-opacity:1"
       d="M 890.55715,122.10066 H 867.73206 L 830.88752,58.028236 h -0.52138 q 1.1007,16.973976 1.1007,24.215432 V 122.10066 H 815.41976 V 37.404561 h 22.65129 l 36.78661,63.435189 h 0.40553 Q 874.39421,84.329208 874.39421,77.493278 V 37.404561 h 16.16294 z" />
    <path
       inkscape:connector-curvature="0"
       id="path4544"
       style="font-style:normal;font-variant:normal;font-weight:bold;font-stretch:normal;font-size:80px;line-height:125%;font-family:'Open Sans';-inkscape-font-specification:'Open Sans Bold';text-align:center;letter-spacing:0px;word-spacing:0px;text-anchor:middle;fill:#1a1a1a;fill-opacity:1;stroke:none;stroke-width:1.48305082px;stroke-linecap:butt;stroke-linejoin:miter;stroke-opacity:1"
       d="m 982.08919,78.941566 q 0,20.91333 -11.93393,32.036214 -11.87599,11.12288 -34.35348,11.12288 H 911.81806 V 37.404561 h 26.59064 q 20.73955,0 32.21001,10.949082 11.47048,10.949082 11.47048,30.587923 z m -18.654,0.463454 q 0,-27.285822 -24.09958,-27.285822 h -9.55872 v 55.150952 h 7.70491 q 25.95339,0 25.95339,-27.86513 z" />
    <path
       inkscape:connector-curvature="0"
       id="path4546"
       style="font-style:normal;font-variant:normal;font-weight:bold;font-stretch:normal;font-size:80px;line-height:125%;font-family:'Open Sans';-inkscape-font-specification:'Open Sans Bold';text-align:center;letter-spacing:0px;word-spacing:0px;text-anchor:middle;fill:#1a1a1a;fill-opacity:1;stroke:none;stroke-width:1.48305082px;stroke-linecap:butt;stroke-linejoin:miter;stroke-opacity:1"
       d="m 1051.4913,122.10066 -6.1407,-20.16022 h -30.8776 l -6.1408,20.16022 h -19.34915 l 29.89275,-85.043697 h 21.9561 l 30.0086,85.043697 z m -10.4277,-35.222458 q -8.5159,-27.401678 -9.6166,-30.993434 -1.0428,-3.591771 -1.5063,-5.677312 -1.9117,7.415255 -10.949,36.670746 z" />
    <path
       inkscape:connector-curvature="0"
       id="path4548"
       style="font-style:normal;font-variant:normal;font-weight:bold;font-stretch:normal;font-size:80px;line-height:125%;font-family:'Open Sans';-inkscape-font-specification:'Open Sans Bold';text-align:center;letter-spacing:0px;word-spacing:0px;text-anchor:middle;fill:#1a1a1a;fill-opacity:1;stroke:none;stroke-width:1.48305082px;stroke-linecap:butt;stroke-linejoin:miter;stroke-opacity:1"
       d="m 1107.8009,72.27942 17.6692,-34.874859 h 19.3492 l -28.0969,51.73298 v 32.963119 h -17.843 V 89.716865 l -28.0968,-52.312304 h 19.465 z" />
    <path
       inkscape:connector-curvature="0"
       id="path4533"
       style="font-style:normal;font-variant:normal;font-weight:bold;font-stretch:normal;font-size:320px;line-height:125%;font-family:'Open Sans';-inkscape-font-specification:'Open Sans Bold';letter-spacing:0px;word-spacing:0px;fill:#1a1a1a;fill-opacity:1;stroke:none;stroke-width:1.48305082px;stroke-linecap:butt;stroke-linejoin:miter;stroke-opacity:1"
       d="M 884.47433,527.53548 H 647.64965 v -49.82124 l 85.0437,-85.9706 q 37.77145,-38.69836 49.35778,-53.52887 11.58634,-15.06223 16.68432,-27.8072 5.09799,-12.74497 5.09799,-26.41684 0,-20.39195 -11.35461,-30.3562 -11.12288,-9.96425 -29.89274,-9.96425 -19.69677,0 -38.2349,9.03734 -18.53814,9.03735 -38.69836,25.72167 l -38.93009,-46.11361 q 25.02649,-21.31886 41.47908,-30.12447 16.4526,-8.80562 35.91764,-13.44015 19.46504,-4.86626 43.56462,-4.86626 31.74655,0 56.07786,11.58633 24.3313,11.58634 37.77145,32.44174 13.44014,20.8554 13.44014,47.7357 0,23.40439 -8.34216,44.02807 -8.11043,20.39195 -25.48993,41.94253 -17.14778,21.55058 -60.7124,61.40757 l -43.56461,41.01563 v 3.24417 h 147.6099 z" />
    <path
       inkscape:connector-curvature="0"
       id="path4535"
       style="font-style:normal;font-variant:normal;font-weight:bold;font-stretch:normal;font-size:320px;line-height:125%;font-family:'Open Sans';-inkscape-font-specification:'Open Sans Bold';letter-spacing:0px;word-spacing:0px;fill:#1a1a1a;fill-opacity:1;stroke:none;stroke-width:1.48305082px;stroke-linecap:butt;stroke-linejoin:miter;stroke-opacity:1"
       d="m 1153.2773,358.14327 q 0,88.75132 -29.1976,131.38903 -28.9658,42.63771 -89.4465,42.63771 -58.62683,0 -88.51957,-44.02807 -29.66102,-44.02807 -29.66102,-129.99867 0,-89.67823 28.96584,-132.08422 28.96583,-42.63771 89.21475,-42.63771 58.6269,0 88.5196,44.49153 30.1245,44.49152 30.1245,130.2304 z m -165.68459,0 q 0,62.33448 10.65942,89.4465 10.89117,26.8803 36.38107,26.8803 25.0265,0 36.1494,-27.34375 11.1229,-27.34375 11.1229,-88.98305 0,-62.33448 -11.3546,-89.4465 -11.1229,-27.34375 -35.9177,-27.34375 -25.2582,0 -36.14934,27.34375 -10.89115,27.11202 -10.89115,89.4465 z" />
  </g>
  <g
     inkscape:groupmode="layer"
     id="layer2"
     inkscape:label="cal-sat19"
     style="display:inline"
     transform="translate(0,268.40547)"
     sodipodi:insensitive="true">
    <rect
       style="opacity:1;fill:#e6e6e6;fill-opacity:1;stroke:none;stroke-width:3.36652541;stroke-linecap:round;stroke-linejoin:round;stroke-miterlimit:4;stroke-dasharray:none;stroke-dashoffset:0;stroke-opacity:1"
       id="rect4177"
       width="750"
       height="635.5932"
       x="525"
       y="-23.702072"
       ry="0" />
    <path
       inkscape:connector-curvature="0"
       id="path4511"
       style="font-style:normal;font-variant:normal;font-weight:bold;font-stretch:normal;font-size:80px;line-height:125%;font-family:'Open Sans';-inkscape-font-specification:'Open Sans Bold';text-align:center;letter-spacing:0px;word-spacing:0px;text-anchor:middle;fill:#1a1a1a;fill-opacity:1;stroke:none;stroke-width:1.48305082px;stroke-linecap:butt;stroke-linejoin:miter;stroke-opacity:1"
       d="m 644.11581,98.580406 q 0,11.470464 -8.28424,18.074684 -8.22629,6.60421 -22.94094,6.60421 -13.556,0 -23.9837,-5.09799 v -16.68432 q 8.57388,3.82349 14.48291,5.38765 5.96696,1.56415 10.89115,1.56415 5.90904,0 9.03734,-2.25933 3.18625,-2.25934 3.18625,-6.720074 0,-2.49107 -1.39036,-4.40281 -1.39036,-1.969682 -4.11315,-3.765567 -2.66485,-1.795871 -10.94909,-5.735225 -7.76283,-3.649699 -11.64426,-7.009743 -3.88142,-3.36003 -6.19869,-7.820765 -2.31727,-4.46075 -2.31727,-10.427701 0,-11.238752 7.58905,-17.669171 7.64699,-6.430405 21.08713,-6.430405 6.60421,0 12.57117,1.564144 6.0249,1.564159 12.57117,4.402807 l -5.79317,13.961545 q -6.778,-2.780721 -11.23873,-3.881426 -4.40281,-1.100706 -8.68976,-1.100706 -5.09799,0 -7.82077,2.375195 -2.72279,2.37521 -2.72279,6.198693 0,2.375195 1.10071,4.17108 1.10069,1.737958 3.4759,3.417973 2.43312,1.622086 11.41253,5.909023 11.87599,5.677311 16.2788,11.412551 4.40281,5.677296 4.40281,13.961528 z" />
    <path
       inkscape:connector-curvature="0"
       id="path4513"
       style="font-style:normal;font-variant:normal;font-weight:bold;font-stretch:normal;font-size:80px;line-height:125%;font-family:'Open Sans';-inkscape-font-specification:'Open Sans Bold';text-align:center;letter-spacing:0px;word-spacing:0px;text-anchor:middle;fill:#1a1a1a;fill-opacity:1;stroke:none;stroke-width:1.48305082px;stroke-linecap:butt;stroke-linejoin:miter;stroke-opacity:1"
       d="m 711.31655,122.10066 -6.14075,-20.16022 h -30.87759 l -6.14075,20.16022 h -19.34919 l 29.89274,-85.043697 h 21.95611 l 30.00861,85.043697 z m -10.4277,-35.222458 q -8.51596,-27.401678 -9.61665,-30.993434 -1.04278,-3.591771 -1.50623,-5.677312 -1.91175,7.415255 -10.94909,36.670746 z" />
    <path
       inkscape:connector-curvature="0"
       id="path4515"
       style="font-style:normal;font-variant:normal;font-weight:bold;font-stretch:normal;font-size:80px;line-height:125%;font-family:'Open Sans';-inkscape-font-specification:'Open Sans Bold';text-align:center;letter-spacing:0px;word-spacing:0px;text-anchor:middle;fill:#1a1a1a;fill-opacity:1;stroke:none;stroke-width:1.48305082px;stroke-linecap:butt;stroke-linejoin:miter;stroke-opacity:1"
       d="M 773.94068,122.10066 H 755.98187 V 52.350925 H 732.983 V 37.404561 h 63.95657 v 14.946364 h -22.99889 z" />
    <path
       inkscape:connector-curvature="0"
       id="path4517"
       style="font-style:normal;font-variant:normal;font-weight:bold;font-stretch:normal;font-size:80px;line-height:125%;font-family:'Open Sans';-inkscape-font-specification:'Open Sans Bold';text-align:center;letter-spacing:0px;word-spacing:0px;text-anchor:middle;fill:#1a1a1a;fill-opacity:1;stroke:none;stroke-width:1.48305082px;stroke-linecap:butt;stroke-linejoin:miter;stroke-opacity:1"
       d="m 879.02874,37.404561 v 54.803355 q 0,9.384944 -4.229,16.452594 -4.17108,7.06768 -12.10774,10.83323 -7.93663,3.76556 -18.76986,3.76556 -16.33672,0 -25.37406,-8.34216 -9.03734,-8.40009 -9.03734,-22.940951 V 37.404561 h 17.90088 v 51.84885 q 0,9.790445 3.93935,14.367059 3.93936,4.57659 13.03463,4.57659 8.80561,0 12.74496,-4.57659 3.9973,-4.634534 3.9973,-14.482929 v -51.73298 z" />
    <path
       inkscape:connector-curvature="0"
       id="path4519"
       style="font-style:normal;font-variant:normal;font-weight:bold;font-stretch:normal;font-size:80px;line-height:125%;font-family:'Open Sans';-inkscape-font-specification:'Open Sans Bold';text-align:center;letter-spacing:0px;word-spacing:0px;text-anchor:middle;fill:#1a1a1a;fill-opacity:1;stroke:none;stroke-width:1.48305082px;stroke-linecap:butt;stroke-linejoin:miter;stroke-opacity:1"
       d="m 917.7271,75.002212 h 5.79317 q 8.51596,0 12.57117,-2.838648 4.05522,-2.838648 4.05522,-8.921485 0,-6.024894 -4.17108,-8.573887 -4.11315,-2.548994 -12.80291,-2.548994 h -5.44557 z m 0,14.598782 V 122.10066 H 899.76828 V 37.404561 h 24.6789 q 17.26363,0 25.54786,6.314548 8.28423,6.256621 8.28423,19.059517 0,7.473197 -4.11315,13.324292 -4.11315,5.793167 -11.64426,9.095269 19.11744,28.560313 24.91061,36.902473 h -19.9285 L 927.28582,89.600994 Z" />
    <path
       inkscape:connector-curvature="0"
       id="path4521"
       style="font-style:normal;font-variant:normal;font-weight:bold;font-stretch:normal;font-size:80px;line-height:125%;font-family:'Open Sans';-inkscape-font-specification:'Open Sans Bold';text-align:center;letter-spacing:0px;word-spacing:0px;text-anchor:middle;fill:#1a1a1a;fill-opacity:1;stroke:none;stroke-width:1.48305082px;stroke-linecap:butt;stroke-linejoin:miter;stroke-opacity:1"
       d="m 1048.363,78.941566 q 0,20.91333 -11.9339,32.036214 -11.876,11.12288 -34.3535,11.12288 H 978.0919 V 37.404561 h 26.5906 q 20.7396,0 32.21,10.949082 11.4705,10.949082 11.4705,30.587923 z m -18.654,0.463454 q 0,-27.285822 -24.0996,-27.285822 h -9.55868 v 55.150952 h 7.70488 q 25.9534,0 25.9534,-27.86513 z" />
    <path
       inkscape:connector-curvature="0"
       id="path4523"
       style="font-style:normal;font-variant:normal;font-weight:bold;font-stretch:normal;font-size:80px;line-height:125%;font-family:'Open Sans';-inkscape-font-specification:'Open Sans Bold';text-align:center;letter-spacing:0px;word-spacing:0px;text-anchor:middle;fill:#1a1a1a;fill-opacity:1;stroke:none;stroke-width:1.48305082px;stroke-linecap:butt;stroke-linejoin:miter;stroke-opacity:1"
       d="m 1117.7652,122.10066 -6.1408,-20.16022 h -30.8776 l -6.1407,20.16022 h -19.3492 l 29.8927,-85.043697 h 21.9561 l 30.0086,85.043697 z m -10.4277,-35.222458 q -8.516,-27.401678 -9.6167,-30.993434 -1.0428,-3.591771 -1.5062,-5.677312 -1.9118,7.415255 -10.9491,36.670746 z" />
    <path
       inkscape:connector-curvature="0"
       id="path4525"
       style="font-style:normal;font-variant:normal;font-weight:bold;font-stretch:normal;font-size:80px;line-height:125%;font-family:'Open Sans';-inkscape-font-specification:'Open Sans Bold';text-align:center;letter-spacing:0px;word-spacing:0px;text-anchor:middle;fill:#1a1a1a;fill-opacity:1;stroke:none;stroke-width:1.48305082px;stroke-linecap:butt;stroke-linejoin:miter;stroke-opacity:1"
       d="m 1174.0747,72.27942 17.6692,-34.874859 h 19.3492 l -28.0969,51.73298 v 32.963119 h -17.8429 V 89.716865 l -28.0969,-52.312304 h 19.465 z" />
    <path
       inkscape:connector-curvature="0"
       id="path4528"
       style="font-style:normal;font-variant:normal;font-weight:bold;font-stretch:normal;font-size:320px;line-height:125%;font-family:'Open Sans';-inkscape-font-specification:'Open Sans Bold';letter-spacing:0px;word-spacing:0px;fill:#1a1a1a;fill-opacity:1;stroke:none;stroke-width:1.48305082px;stroke-linecap:butt;stroke-linejoin:miter;stroke-opacity:1"
       d="M 819.475,526.8403 H 747.87145 V 330.79952 l 0.69518,-32.21001 1.15864,-35.22246 q -17.84296,17.84296 -24.79476,23.4044 l -38.93008,31.2831 -34.52728,-43.10116 109.14327,-86.89751 H 819.475 Z" />
    <path
       inkscape:connector-curvature="0"
       id="path4530"
       style="font-style:normal;font-variant:normal;font-weight:bold;font-stretch:normal;font-size:320px;line-height:125%;font-family:'Open Sans';-inkscape-font-specification:'Open Sans Bold';letter-spacing:0px;word-spacing:0px;fill:#1a1a1a;fill-opacity:1;stroke:none;stroke-width:1.48305082px;stroke-linecap:butt;stroke-linejoin:miter;stroke-opacity:1"
       d="m 1148.5269,332.65333 q 0,100.10593 -42.1743,149.46372 -42.1742,49.35778 -127.68136,49.35778 -30.12447,0 -45.65016,-3.24417 v -57.46822 q 19.46504,4.86626 40.7839,4.86626 35.91762,0 59.09032,-10.4277 23.1726,-10.65943 35.4542,-33.13692 12.2815,-22.70921 14.1353,-62.33448 h -2.7807 q -13.4402,21.78231 -31.0514,30.58793 -17.6112,8.80561 -44.0281,8.80561 -44.25977,0 -69.74971,-28.27066 -25.48993,-28.50238 -25.48993,-79.0188 0,-54.45577 30.81965,-85.9706 31.05137,-31.74656 84.34849,-31.74656 37.5397,0 65.5787,17.61123 28.2706,17.61123 43.3329,51.2116 15.0622,33.36864 15.0622,79.71398 z m -122.5834,-91.06859 q -22.2458,0 -34.75902,15.29396 -12.51324,15.29397 -12.51324,44.02808 0,24.56303 11.3546,38.93008 11.35456,14.36705 34.52726,14.36705 21.7823,0 37.308,-14.13532 15.5257,-14.36706 15.5257,-32.90519 0,-27.57548 -14.5988,-46.57707 -14.367,-19.00159 -36.8445,-19.00159 z" />
  </g>
</svg>
